<svg xmlns="http://www.w3.org/2000/svg" width="19.012" height="19.012" viewBox="0 0 19.012 19.012"><defs><style>.a{fill:#2196f3;}.b{fill:#1e88e5;}.c{fill:#f44336;}.d{fill:#e53935;}.e{fill:#4caf50;}.f{fill:#43a047;}.g{fill:#ffc107;}.h{fill:#ffb300;}</style></defs><path class="a" d="M18.859,7.746a.153.153,0,0,1,.153.153V9.506a9.506,9.506,0,1,1-2.9-6.832.153.153,0,0,1,0,.219L13.846,5.166a.153.153,0,0,1-.213,0,5.986,5.986,0,1,0,1.6,6.1H9.659a.153.153,0,0,1-.153-.153V7.9a.153.153,0,0,1,.153-.153h9.2Z" transform="translate(0)"/><g transform="translate(8.932 7.746)"><path class="b" d="M250.458,208.612h-1.148a.153.153,0,0,1,.153.153v1.607a9.5,9.5,0,0,1-8.933,9.489q.252.015.507.017a9.5,9.5,0,0,0,9.573-9.506v-1.607A.153.153,0,0,0,250.458,208.612Z" transform="translate(-240.531 -208.612)"/></g><path class="c" d="M34.7,7,31.812,4.913A9.508,9.508,0,0,1,46.747,2.674a.153.153,0,0,1,0,.219L44.477,5.166a.152.152,0,0,1-.213,0A5.988,5.988,0,0,0,34.7,7Z" transform="translate(-30.631 0)"/><path class="d" d="M87.115,97.654l.833.6a5.99,5.99,0,0,1,4.815-3.447l.048-.005q-.283-.027-.573-.027A5.969,5.969,0,0,0,87.115,97.654Z" transform="translate(-83.88 -91.258)"/><path class="d" d="M246.581,2.674a.153.153,0,0,1,0,.219l-1.845,1.845a6.016,6.016,0,0,1,.507.431.153.153,0,0,0,.213,0l2.273-2.273a.153.153,0,0,0,0-.219A9.477,9.477,0,0,0,241.119,0c-.193,0-.384.006-.574.018A9.476,9.476,0,0,1,246.581,2.674Z" transform="translate(-231.613 0)"/><path class="e" d="M42.457,320.329A9.507,9.507,0,0,1,26.98,318.12l2.947-2.02a5.988,5.988,0,0,0,9.643,2.143Z" transform="translate(-25.978 -304.362)"/><path class="f" d="M83.819,316.1l-.869.6a5.986,5.986,0,0,0,5.278,3.159c.193,0,.384-.009.572-.027A5.991,5.991,0,0,1,83.819,316.1Z" transform="translate(-79.87 -304.363)"/><path class="f" d="M241.158,419.777a9.48,9.48,0,0,0,6.973-3.046l-.707-.511a9.489,9.489,0,0,1-6.838,3.539Q240.87,419.776,241.158,419.777Z" transform="translate(-231.652 -400.765)"/><path class="g" d="M3.519,136.9a5.968,5.968,0,0,0,.43,2.232L1,141.151a9.521,9.521,0,0,1,.179-8.845l2.887,2.086a5.962,5.962,0,0,0-.549,2.507Z" transform="translate(0 -127.393)"/><path class="h" d="M64.58,178.2l.869-.6a6,6,0,0,1,.119-4.739l-.833-.6a6.015,6.015,0,0,0-.155,5.937Z" transform="translate(-61.499 -165.868)"/></svg>