<svg xmlns="http://www.w3.org/2000/svg" xmlns:xlink="http://www.w3.org/1999/xlink" width="321.325" height="292.098" viewBox="0 0 321.325 292.098"><defs><style>.a{fill:none;}.b{fill:#ebeec1;}.c{fill:#d3d3af;}.d{fill:#bebe9e;}.e{fill:#f1f1ce;}.f{fill:#e0be95;}.g{fill:#c48b5e;}.h{fill:#d8aa7d;}.i{fill:#7f542e;}.j{fill:#8bd0d0;}.k{fill:#655fbf;}.l{fill:#d1e2ee;}.m{fill:#4c6e81;}.n{fill:#bbebef;}.o{fill:#71a7ab;}.p{fill:#5a8694;}.q,.r{mix-blend-mode:multiply;}.af,.q,.r{isolation:isolate;}.r{fill:#b0a7c2;}.s{fill:#c5bed1;}.t{fill:url(#a);}.u{fill:#fcfcfc;opacity:0.69;}.v{fill:#3f4f5d;}.w{fill:#5d6571;}.x{fill:#8140ff;}.y{fill:#a68efe;}.z{fill:#307fe2;}.aa{fill:#e6a57a;}.ab{fill:#f6ba28;}.ac{fill:#d2448d;}.ad{fill:#f2a305;}.ae{fill:#e06c00;}.ag{clip-path:url(#b);}.ah{fill:#fff;}</style><linearGradient id="a" y1="0.5" x2="1" y2="0.5" gradientUnits="objectBoundingBox"><stop offset="0" stop-color="#c4b8e9"/><stop offset="0.417" stop-color="#b2cfde"/><stop offset="1" stop-color="#ffcade"/></linearGradient><clipPath id="b"><path class="a" d="M898.986,222.6l-.731-8.167,32.461,21.08.731,8.167Z" transform="translate(-898.255 -214.437)"/></clipPath></defs><g transform="translate(-745.776 -60.242)"><g transform="translate(745.776 269.737)"><path class="b" d="M832.271,326.017l-49.919,28.818-36.576-21.118c11.913-6.877,43.1-24.88,49.92-28.819C801.162,308.055,810.833,313.643,832.271,326.017Z" transform="translate(-745.776 -298.996)"/><path class="c" d="M815.233,344.538,799.291,360.48l-7.407-2.461Z" transform="translate(-751.29 -303.736)"/><path class="d" d="M800.3,360.34,816.239,344.4l1.788-1.034L800.3,361.1Z" transform="translate(-752.296 -303.596)"/><path class="d" d="M799.178,362.311v.76l-8.236-2.747.828-.474Z" transform="translate(-751.177 -305.568)"/><path class="c" d="M794.15,307.784l-20.72,11.961,14.148-14.154Z" transform="translate(-749.083 -299.079)"/><path class="d" d="M787.32,357.7l49.919-28.818v.76L787.32,358.465Z" transform="translate(-750.744 -301.864)"/><path class="c" d="M767.8,351.429l-18.391-6.13,2.841-2.841Z" transform="translate(-746.21 -303.488)"/><path class="d" d="M749.406,345.684l18.391,6.13,3.1,1.794-21.487-7.164Z" transform="translate(-746.21 -303.873)"/><path class="e" d="M745.776,337.632l36.576,21.118v.761l-36.576-21.119Z" transform="translate(-745.776 -302.91)"/><g transform="translate(46.232)"><path class="f" d="M845.635,320.835l-8.127,4.693-39.219-22.646,8.127-4.688C806.475,298.228,842.059,318.768,845.635,320.835Z" transform="translate(-798.288 -298.194)"/><path class="g" d="M850.962,325l-8.127,4.689V328.6l8.127-4.692Z" transform="translate(-803.615 -301.27)"/><path class="h" d="M837.508,327.255l-39.219-22.641v-1.094l39.219,22.645Z" transform="translate(-798.288 -298.831)"/><g transform="translate(5.508 1.511)"><path class="i" d="M810.381,300.259c-5.783,3.339-5.415,3.15-5.538,3.15a.3.3,0,0,1-.149-.562l5.089-2.937Z" transform="translate(-804.545 -299.91)"/></g><g transform="translate(9.181 3.634)"><path class="i" d="M814.559,302.667c-5.737,3.314-5.42,3.154-5.542,3.154a.3.3,0,0,1-.149-.561l5.085-2.938Z" transform="translate(-808.716 -302.322)"/></g><g transform="translate(12.855 5.754)"><path class="i" d="M818.729,305.079c-5.784,3.338-5.422,3.15-5.539,3.15a.3.3,0,0,1-.151-.561l5.089-2.938Z" transform="translate(-812.889 -304.73)"/></g><g transform="translate(16.529 7.874)"><path class="i" d="M822.9,307.487c-5.8,3.344-5.422,3.149-5.538,3.149a.3.3,0,0,1-.152-.561l5.09-2.937Z" transform="translate(-817.063 -307.138)"/></g><g transform="translate(20.203 9.994)"><path class="i" d="M827.076,309.895c-5.783,3.337-5.419,3.149-5.541,3.149a.3.3,0,0,1-.149-.556l5.09-2.941Z" transform="translate(-821.235 -309.546)"/></g><g transform="translate(23.875 12.118)"><path class="i" d="M831.249,312.3c-5.794,3.345-5.426,3.154-5.542,3.154a.3.3,0,0,1-.152-.561c5.155-2.975,5.054-2.938,5.094-2.938Z" transform="translate(-825.406 -311.958)"/></g><g transform="translate(27.549 14.238)"><path class="i" d="M835.42,314.71c-5.794,3.347-5.423,3.154-5.539,3.154a.3.3,0,0,1-.152-.561l5.09-2.937Z" transform="translate(-829.58 -314.366)"/></g><g transform="translate(31.224 16.358)"><path class="i" d="M839.593,317.123c-5.795,3.344-5.422,3.149-5.538,3.149a.3.3,0,0,1-.152-.561l5.09-2.937Z" transform="translate(-833.753 -316.774)"/></g><g transform="translate(34.897 18.478)"><path class="i" d="M843.767,319.531c-5.736,3.313-5.42,3.154-5.542,3.154a.3.3,0,0,1-.148-.562l5.089-2.941Z" transform="translate(-837.926 -319.182)"/></g><g transform="translate(38.57 20.602)"><path class="i" d="M847.94,321.938c-5.795,3.346-5.426,3.155-5.542,3.155a.3.3,0,0,1-.152-.562l5.093-2.937Z" transform="translate(-842.097 -321.594)"/></g></g><g transform="translate(42.528 14.625)"><path class="j" d="M796.23,315.072a17.812,17.812,0,0,0-1.094,1.413c-.03.034,0,.129.273.511a4.809,4.809,0,0,0-.716,2.971l-.016,0a1.468,1.468,0,0,1-.6-1.321,4.48,4.48,0,0,1,2.143-3.589Z" transform="translate(-794.081 -314.836)"/><path class="k" d="M843.609,343.847q.738.881,1.481,1.764a.211.211,0,0,1-.2.343l-2.306-.408a.432.432,0,0,1-.313-.431,1.531,1.531,0,0,1,.862-1.388A.393.393,0,0,1,843.609,343.847Z" transform="translate(-799.844 -318.261)"/><path class="j" d="M804.845,319.145c34.443,19.888,29.949,17.208,29.592,17.208a1.425,1.425,0,0,0-.651.108l0,0a3.37,3.37,0,0,0-1.378,1.089s-.007,0-.007.009a4.655,4.655,0,0,0-.952,2.077,2.741,2.741,0,0,0-.009.967,1.435,1.435,0,0,0,.19.513,1.034,1.034,0,0,0,.318.336c-31.762-18.334-31.069-17.915-31.057-17.937a1.1,1.1,0,0,1-.358-.451,2.706,2.706,0,0,1-.007-1.8,4.841,4.841,0,0,1,.623-1.314l7.817,4.513,1.135-1.414-.083-.12-7.448-4.3a1.358,1.358,0,0,1,1.316-.044Z" transform="translate(-794.833 -315.24)"/><path class="l" d="M839.443,339.251l0,0,0,.009C839.5,339.345,839.489,339.333,839.443,339.251Zm-2.7,4.8c-.033,0-.066,0-.1,0C836.673,344.047,836.706,344.05,836.739,344.05Zm5.052.909-5.2-.917v0c.026,0,.036.006-.006,0a.932.932,0,0,1-.237-.06.389.389,0,0,0-.04-.015,1,1,0,0,1-.373-.283,1.3,1.3,0,0,1-.093-.13s0,0,0-.007a1.518,1.518,0,0,1-.139-.318,1.752,1.752,0,0,1-.055-.241,3.611,3.611,0,0,1,.3-1.859l0-.009a4.766,4.766,0,0,1,.508-.91c.029-.048.163-.219.166-.221a3.476,3.476,0,0,1,1.436-1.108,1.523,1.523,0,0,1,.663-.085c.011,0,.083.016.085.016a.925.925,0,0,1,.2.069,1.061,1.061,0,0,1,.354.267c.026.034-.264-.311,3.414,4.071a.407.407,0,0,0-.437-.073,1.53,1.53,0,0,0-.862,1.388A.432.432,0,0,0,841.791,344.959Z" transform="translate(-799.049 -317.673)"/><path class="m" d="M810.033,324.96l1.138-1.414.084.119-1.135,1.414Z" transform="translate(-795.989 -315.851)"/><path class="n" d="M799.256,314.995c4.745,2.744,4.54,2.6,4.525,2.625a1.907,1.907,0,0,0-2.016.34q-2.263-1.309-4.531-2.616a3.778,3.778,0,0,1,.464-.283A1.751,1.751,0,0,1,799.256,314.995Z" transform="translate(-794.458 -314.81)"/><path class="o" d="M802.381,318.313a1.907,1.907,0,0,1,2.016-.34,1.466,1.466,0,0,1,.688,1.1c-.024-.013-1.012-.585-1.034-.6a1.4,1.4,0,0,0-1.243.085Z" transform="translate(-795.074 -315.164)"/><path class="o" d="M799.882,322.777a5.16,5.16,0,0,1,.9-2.816v0l.31.179a4.839,4.839,0,0,0-.623,1.314,2.7,2.7,0,0,0,.007,1.8,1.1,1.1,0,0,0,.358.451l0,0,1.074.621a1.472,1.472,0,0,1-1.35-.078A1.674,1.674,0,0,1,799.882,322.777Z" transform="translate(-794.775 -315.422)"/><path class="j" d="M796.532,315.02a1.385,1.385,0,0,1,1.323-.078l0,.01a3.046,3.046,0,0,0-.709.387c-.377-.216-.542-.328-.612-.306Z" transform="translate(-794.374 -314.805)"/><path class="n" d="M795.458,321.313a1.568,1.568,0,0,1-.656-.976,4.8,4.8,0,0,1,.831-3.349l4.53,2.616a5.353,5.353,0,0,0-.9,2.818,1.674,1.674,0,0,0,.669,1.469C799.924,323.913,800.062,323.963,795.458,321.313Z" transform="translate(-794.159 -315.066)"/><path class="m" d="M795.706,316.96c-.034.051-.067.106-.1.161-.086-.123-.172-.243-.256-.366Z" transform="translate(-794.233 -315.039)"/><path class="p" d="M795.269,316.795c-.116-.169.01-.155.188-.05q6.4,3.7,12.8,7.393l.086.12c-6.245-3.6-12.159-7.022-13.015-7.513.084.123.17.243.256.366-.013.025-.029.051-.044.077C795.453,317.058,795.359,316.925,795.269,316.795Z" transform="translate(-794.218 -315.028)"/><g class="q" transform="translate(0.736 1.637)"><path class="r" d="M841.5,345.476c-.326-.1-.651-.192-.976-.291-2.388-.733-4.77-1.485-7.165-2.192a14.484,14.484,0,0,1-3.09-1.543q-13.863-8-27.713-16.009A2.392,2.392,0,0,0,801.2,325a1.666,1.666,0,0,1-.82-.276c-1.24-.7-2.47-1.417-3.7-2.137-.284-.166-.634-.241-.59-.747.017-.192-.365-.418-.615-.569a1.4,1.4,0,0,1-.563-.713c1.533.831,2.985,1.7,4.452,2.44a4.438,4.438,0,0,1,.671-3.2c-1.563-.915-3-1.714-4.531-2.611,0,0-.182-.259-.279-.4-.055-.08-.061-.131.011-.119,1.434.735,3.05,1.738,4.45,2.538s2.7,1.566,4.094,2.371c1.418.816,2.981,1.721,4.442,2.561.273-.3.494-.646.8-.983.332.186.7.388,1.057.587l-1.093,1.41-8.529-4.91a2.562,2.562,0,0,0-.293,2.344,1.666,1.666,0,0,0,.729.688c2.086,1.223,4.186,2.422,6.281,3.631q11.384,6.566,22.758,13.148a5.71,5.71,0,0,0,1.572.512c1.172.3,2.335.623,3.5.939q1.906.516,3.809,1.036a.947.947,0,0,1,.442.17c.79.868,1.561,1.754,2.338,2.633Z" transform="translate(-794.917 -316.665)"/><path class="s" d="M802.614,318.346c1.164-.882,2-.685,2.336.433a4.349,4.349,0,0,1-.457-.167,1.5,1.5,0,0,0-1.156-.148C803.125,318.525,802.857,318.392,802.614,318.346Z" transform="translate(-795.838 -316.8)"/></g><path class="o" d="M795.233,316.482c.38-.471.755-.941,1.135-1.411l-.006-.013a.032.032,0,0,1,.015-.009l.007.013c.083-.026-.467-.318,13.017,7.468l-1.138,1.414C794.854,316.2,795.291,316.423,795.233,316.482Z" transform="translate(-794.219 -314.835)"/></g></g><g transform="translate(850.582 60.242)"><path class="t" d="M867.359,256.724a20.406,20.406,0,0,0,2.194,7.813,23.391,23.391,0,0,0,4.872,6.5,37.988,37.988,0,0,0,6.978,4.346c3.643,1.975,7.023,4.082,10.534,6.188.9.534,58.636,33.88,59.6,34.278,4.777,2.012,8.339-.88,8.339-6.32.378-159.285.173-129.379.307-138.868.044-6.935.219-13.914.131-20.848-.044-4.609-.175-9.173-.087-13.826a42.62,42.62,0,0,0-.088-5.793,22.251,22.251,0,0,0-7.813-13.782,32.832,32.832,0,0,0-4.915-3.029c-2.721-1.535-5.355-3.116-7.988-4.652-9.068-5.3-18.09-10.24-30.109-17.293-21.942-13.056-20.361-11.29-26.071-14.966-3.949-2.551-9.214-6.674-13.079-3.862-2.744,1.96-2.5,6.1-2.414,9.129.144,4.413-.227,3.5-.043,19.663C867.745,108.913,867.242,254.35,867.359,256.724ZM923.45,105.3a.742.742,0,0,1-.044.307c-.044.131-.044.219-.132.263a.34.34,0,0,1-.175.175c-.58.291.425.683-17.337-9.567a1.942,1.942,0,0,1-.307-.264,1.6,1.6,0,0,1-.527-.658c-.45-.676-.351-1.1-.351-2.458,0-.356.059-.644.351-.79a.544.544,0,0,1,.527-.044.475.475,0,0,1,.307.131c2.59,1.553,16.478,9.412,16.811,9.743a2.041,2.041,0,0,1,.7,1.054A4.747,4.747,0,0,1,923.45,105.3Z" transform="translate(-865.12 -61.608)"/><g transform="translate(10.703 24.989)"><g transform="translate(0.165 18.01)"><path class="u" d="M893.034,122.793l-12.99-7.5a5.98,5.98,0,0,1-2.882-4.547h0c0-1.593,1.291-2.138,2.882-1.218l12.99,7.5a5.98,5.98,0,0,1,2.882,4.547h0C895.917,123.168,894.626,123.713,893.034,122.793Z" transform="translate(-877.162 -109.082)"/><path class="u" d="M893.034,131.993l-12.99-7.5a5.979,5.979,0,0,1-2.882-4.547h0c0-1.592,1.291-2.138,2.882-1.218l12.99,7.5a5.98,5.98,0,0,1,2.882,4.547h0C895.917,132.368,894.626,132.913,893.034,131.993Z" transform="translate(-877.162 -110.182)"/></g><path class="u" d="M945.961,137.82l-63.05-36.4c-3.279-1.893-5.937-6.085-5.937-9.364h0c0-3.279,2.658-4.4,5.937-2.509l63.05,36.4c3.279,1.893,5.937,6.085,5.937,9.364h0C951.9,138.589,949.24,139.713,945.961,137.82Z" transform="translate(-876.975 -88.626)"/></g><path class="v" d="M911.231,95.366c17.619,10.163,16.888,9.454,17.292,10.665a.707.707,0,0,1,.132.4,1.2,1.2,0,0,1,.044.394v1.054c-17.958-10.386-16.33-9.395-16.723-9.788a2.556,2.556,0,0,1-.746-1.712Z" transform="translate(-870.369 -64.443)"/><path class="w" d="M910.511,95.061a.475.475,0,0,1,.307.131l.22.132a5.17,5.17,0,0,0,.087,1.623,2.777,2.777,0,0,0,1.141,1.492l16.24,9.393v.263a.746.746,0,0,1-.044.307c-.044.131-.044.219-.132.263a.344.344,0,0,1-.175.175c-.221.111-.14.088-.526.088-.088-.044-.22-.088-.307-.132-16.86-9.729-17.076-9.663-17.337-10.445-.463-.695-.351-1.219-.351-2.458a1.2,1.2,0,0,1,.132-.615A.623.623,0,0,1,910.511,95.061Z" transform="translate(-870.176 -64.4)"/><path class="x" d="M877.732,69c-3.32-1.947-6.289-1.984-8.427-.879,12.985-7.321,12.734-7.606,14.484-7.812,2.591-.3,4.263.392,6.408,1.536l73.033,42.179c6.113,3.428,11.982,12.652,11.982,20.8-.423,189.748-.326,177.926-.526,179.731a8.02,8.02,0,0,1-3.38,5.53c-15.681,8.937-12.059,7.1-11.324,6.364,1.712-1.668,2.37-4.609,2.414-6.979l.351-177.492c0-7.446-5.049-16.745-11.982-20.8Z" transform="translate(-865.355 -60.242)"/><path class="y" d="M950.228,112.15,877.2,69.972c-3.324-1.949-6.292-1.983-8.427-.879a.043.043,0,0,1-.044.044c-2.535,1.127-3.555,4.869-3.555,7.769L864.828,244l-.01-.005v10.4c0,7.38,4.876,16.567,11.938,20.8l73.077,42.179c6.187,3.626,11.876,1.181,12.026-6.935l.351-177.492C962.211,125.545,957.2,116.229,950.228,112.15Zm9.656,58.111c-.128,9.021.069-19.7-.307,138.869,0,5.431-3.554,8.335-8.339,6.32-.938-.386-58.735-33.763-59.6-34.278-3.511-2.107-6.891-4.214-10.534-6.188a37.981,37.981,0,0,1-6.978-4.346,23.376,23.376,0,0,1-4.872-6.5,20.419,20.419,0,0,1-2.194-7.813c-.107-2.205.022-1.26.041-9.072h0c0-103.556.342-138.707.307-146.254-.184-16.16.188-15.25.043-19.663-.07-2.463-.25-5.146.922-7.373a4.819,4.819,0,0,1,3.073-2.5c3.463-1.154,8.448,2.637,11.5,4.608,3.2,2.063,6.672,3.818,10.051,5.662,8.018,4.332,13.512,8.043,32.04,18.522,19.6,11.172,17.2,9.974,22.077,12.728,3.413,1.837,5.665,3.14,8.163,6.32a24.26,24.26,0,0,1,3.424,6.013c1.465,4.029,1.323,6.122,1.229,10.27-.088,4.653.044,9.217.087,13.826C960.1,156.347,959.929,163.326,959.884,170.261Z" transform="translate(-864.818 -61.213)"/><g transform="translate(10.987 106.794)"><path class="u" d="M951.936,263.807c0,2.609-2.114,3.5-4.722,2l-65.2-37.64c-2.607-1.505-4.721-4.84-4.721-7.447V184.269c0-2.607,2.114-3.5,4.722-2l65.2,37.641c2.608,1.506,4.722,4.84,4.722,7.447Z" transform="translate(-877.298 -181.542)"/></g><g transform="translate(10.987 156.64)"><path class="u" d="M951.936,320.424c0,2.608-2.114,3.5-4.722,2l-65.2-37.641c-2.607-1.505-4.721-4.84-4.721-7.447V240.886c0-2.608,2.114-3.5,4.722-2l65.2,37.641c2.608,1.506,4.722,4.84,4.722,7.447Z" transform="translate(-877.298 -238.159)"/></g><g transform="translate(10.987 62.364)"><path class="u" d="M951.936,208.061c0,2.608-2.114,3.5-4.722,1.995l-65.2-37.64c-2.607-1.506-4.721-4.84-4.721-7.447V133.8c0-2.607,2.114-3.5,4.722-1.995l65.2,37.641c2.608,1.505,4.722,4.84,4.722,7.447Z" transform="translate(-877.298 -131.077)"/></g><path class="r" d="M973.885,257.828l.233-118.007s9.033,1.5,11.229-14.041c1.722,2.5,1.236,18.589,1.236,18.589l-.269,113.943s16.431.339,25.072.195a40.475,40.475,0,0,1,21.567,5.762c.09.052,27.655,15.724,51.345,29.636,3.133,1.84,6.823,3.142,8.947,7.119-5.082,4.392-10.118,7.355-17.133,7.249-21.236-.32-42.482.041-63.72-.226a25.794,25.794,0,0,0-13.961,3.838c-8.006,4.73-16.134,9.254-24.125,14.011-3.291,1.958-6.461,1.612-9.92-.455,11.887,3.677,9.409-15.431,9.409-15.431Z" transform="translate(-876.726 -68.08)"/><path class="z" d="M889.207,198.013l54.1,32.732v27.675l-54.1-31.985Z" transform="translate(-867.735 -76.718)"/></g><g transform="translate(825.682 186.847)"><path class="aa" d="M924.184,242.493v.067c0,1.855-3.209,2.16-3.209,3.618,0,.839,2.043,2.451,2.043,4.185,0,3.941-4.413,4.773-8.347,4.773-.647,0-1.28-.018-1.885-.037h0a7.663,7.663,0,0,0-2.017-4.588c3.24-1.713,4.91-8.107,12.913-8.107A1.25,1.25,0,0,1,924.184,242.493Z" transform="translate(-845.413 -208.632)"/><path class="ab" d="M842.773,246.705a14.168,14.168,0,0,1,4.272-2.261,7.592,7.592,0,0,0,.746,2.491,9.9,9.9,0,0,0,2.651.344,20.165,20.165,0,0,0,6.728-1.438,16.051,16.051,0,0,0,.344-1.829,23.308,23.308,0,0,1,6.547,3.084,15.656,15.656,0,0,0,8.95,2.77c8.192-.065,17.121,3.271,22.772,1.836,1.772-.452,3.446-1.232,5.184-1.8a3.661,3.661,0,0,1,1.327.8,7.663,7.663,0,0,1,2.017,4.588,8.728,8.728,0,0,1,.077,1.007c-10.87,6.831-22.627,4.587-32.425,7.594a4.957,4.957,0,0,0-3.421,5.412c1.5,11.1,4.67,23.776.78,27.516a.379.379,0,0,1-.037.029c-3.449,2.724-8.365,4.311-15.323,4.311-6.483,0-10.929-4.827-12.821-10.868v0c-.193-.621-.362-1.253-.5-1.895a58.905,58.905,0,0,0,1.453-8.325c.147-1.456.24-2.967.24-4.441,0-9.384-2.411-16.708-2.411-21.766a11.71,11.71,0,0,1,.89-4.892A5.1,5.1,0,0,1,842.773,246.705Z" transform="translate(-836.941 -208.824)"/><path class="y" d="M877.807,374.67a4.462,4.462,0,0,1,4.508,4.278c0,5.179-11.828,11-16.805,11-3.529,0-4.281-3.078-4.281-6.61,0-1.036.075-2.075.133-3.114-.133-2.609,2.088-2.961,2.185-3.538.719.475-.4,2.433.376,2.433,2.407,0,4.131-2.014,5.7-4.178a5.87,5.87,0,0,1,1.16,4.392C872.773,377.12,875.7,374.67,877.807,374.67Z" transform="translate(-839.489 -224.45)"/><path class="ac" d="M845.156,353.529c-.288,1.167-.55,2.223-.777,3.141a4.686,4.686,0,0,1-1.227,2.181,7.547,7.547,0,0,1-1.242,1.142c-2.058,0-3.838,2.036-3.834-4.953h0c.541-3.784,1.471-55.254,2.846-58.461,1.892,6.04,6.339,10.868,12.821,10.868,6.959,0,11.875-1.587,15.323-4.311l0,0a46.571,46.571,0,0,1,.6,7.772c0,.147-2.088,47.38-2.567,55.76-.441,1.816-1.346,3.017-3.872,3.9a2.943,2.943,0,0,1-2.449.021,2.338,2.338,0,0,1-1.318-2.1c.36-8.533-3.274-45.227-6.836-51.376C850.251,324.69,847.643,343.459,845.156,353.529Z" transform="translate(-836.72 -215.111)"/><path class="x" d="M858.583,242.144c-.025.4-.062.8-.114,1.2a16.048,16.048,0,0,1-.344,1.829,20.163,20.163,0,0,1-6.728,1.438,9.9,9.9,0,0,1-2.651-.344,7.588,7.588,0,0,1-.746-2.491,9.493,9.493,0,0,1-.086-1.29,5.825,5.825,0,0,1,1.275-4.025,5.49,5.49,0,0,0,.952,1.406v0c1.653,1.778,4.333,2.339,6.866,2.339.089,0,.175,0,.264,0C857.716,242.206,858.156,242.185,858.583,242.144Z" transform="translate(-837.897 -208.161)"/><path class="aa" d="M857.866,240.612c-.12.494-.216.991-.292,1.492-.089,0-.175,0-.264,0-2.533,0-5.214-.562-6.866-2.339v0c.025-.731.04-1.461.046-2.2,1.116.283,2.236.151,3.412.531a6.592,6.592,0,0,0,2.764,1.287C857.07,239.789,857.469,240.2,857.866,240.612Z" transform="translate(-838.199 -208.054)"/><path class="y" d="M844.437,363.167c.166-.672.347-1.4.539-2.178a8.954,8.954,0,0,1,5.141-2.03c2.138,0,3.927,1.21,3.927,3.507,0,7.588-11.669,13.482-14.989,13.482h-.086a2.985,2.985,0,0,1-2.4-3.022c0-3.491.695-5.948,1.327-10.425h0C838.338,367.183,844.059,364.691,844.437,363.167Z" transform="translate(-836.539 -222.571)"/><path class="ad" d="M841.926,276.3c0,1.474-.093,2.985-.239,4.441h0a33.938,33.938,0,0,1-5.147-18.072c0-4.966,1.164-9.7,3.869-13.027a11.71,11.71,0,0,0-.89,4.892C839.515,259.595,841.926,266.919,841.926,276.3Z" transform="translate(-836.536 -209.498)"/><path class="ae" d="M865.566,212.286c.5,1.63.356,3.256-1.591,3.851l-.021.006c-.041.012-.082.026-.121.034-1.941.532-2.352,2.846-3.586,3.222-6.265,1.914,2.846,13.279-5.491,15.826a6.746,6.746,0,0,1-4.374-.16c-1.236-.021-2.27.432-3.419.488a4.146,4.146,0,0,1-1.418-.166c-4.045-1.215-6.567-4.48-7.77-8.416-1.335-4.37-1.418-10.3,1.4-15.107a14.97,14.97,0,0,1,4.989-5.142,18.876,18.876,0,0,1,4.62-2.086C855.445,202.6,863.642,205.985,865.566,212.286Z" transform="translate(-836.577 -204.045)"/><path class="aa" d="M866.077,217.825q.312.766.554,1.558c1.556,5.1,1.573,16.938-4.186,18.7a9.488,9.488,0,0,1-5.3-.234l.006.114c-.5-.275-1-.555-1.507-.824a6.646,6.646,0,0,0,1.355-.262c8.337-2.547-.774-13.912,5.491-15.826C863.725,220.671,864.137,218.357,866.077,217.825Z" transform="translate(-838.821 -205.693)"/></g><g transform="translate(880.019 195.997)"><g transform="translate(0 0)"><g class="af"><g class="ag"><g transform="translate(0.558 1.279)"><path class="ah" d="M899.819,219.13l.275-1.433c.051-.3.091-.616.123-.924l.015.009c.093.384.188.773.32,1.225l.58,1.976-1.313-.852m.7-2.8-.681-.442-.953,4.947.578.375.291-1.559,1.545,1,.633,2.16.6.391-2.016-6.875" transform="translate(-898.888 -215.89)"/><path class="ah" d="M905.065,224.5a2.579,2.579,0,0,1-.936-1.457,2.8,2.8,0,0,1-.057-.335l-.065-.731a1.315,1.315,0,0,1,.015-.287c.055-.51.387-.648.775-.4a3.051,3.051,0,0,1,1.075,2.186c.087.974-.2,1.411-.807,1.02m-.148-3.7c-.515-.335-.857-.271-1.044.1l-.01-.006-.09-.747-.515-.335c.051.418.1.862.153,1.408l.411,4.594.559.363-.206-2.3.014.009a2.907,2.907,0,0,0,1.026,1.293c.739.48,1.358.174,1.22-1.352a4.23,4.23,0,0,0-1.52-3.021" transform="translate(-899.411 -216.358)"/><path class="ah" d="M909.251,227.219a2.587,2.587,0,0,1-.936-1.457c-.019-.106-.043-.22-.053-.332l-.065-.731a1.348,1.348,0,0,1,.01-.291c.06-.506.386-.648.775-.4a3.048,3.048,0,0,1,1.074,2.185c.087.974-.2,1.411-.806,1.02m-.149-3.7c-.511-.332-.852-.269-1.039.1l-.015-.01-.09-.746-.51-.332c.046.415.1.858.148,1.4l.411,4.594.564.366-.206-2.3.014.009a2.889,2.889,0,0,0,1.022,1.29c.739.48,1.357.174,1.22-1.352a4.23,4.23,0,0,0-1.52-3.02" transform="translate(-899.912 -216.684)"/><path class="ah" d="M912.033,223.385l-.569-.369.557,6.226.569.369-.557-6.226" transform="translate(-900.392 -216.742)"/><path class="ah" d="M915.88,228l-.6-.391-.4,2.09c-.049.259-.089.537-.125.749l-.01-.006c-.076-.285-.183-.671-.281-.995l-.91-2.959-.623-.4,1.512,4.67a1.464,1.464,0,0,1,.056.223.342.342,0,0,1-.033.153.838.838,0,0,1-.4.553.691.691,0,0,1-.467.05l.2.743a.714.714,0,0,0,.655-.046c.349-.2.563-.769.841-1.958L915.88,228" transform="translate(-900.567 -217.109)"/><path class="ah" d="M918.845,228.147l-.564-.366.529,5.91,2.43,1.578-.057-.638-1.866-1.212-.472-5.271" transform="translate(-901.207 -217.312)"/><path class="ah" d="M922.269,233.834c0-.5.189-1.055.762-.682a2.4,2.4,0,0,1,.9,1.765l-1.667-1.083m.762-1.2c-.914-.593-1.382.051-1.268,1.334a4.249,4.249,0,0,0,1.733,3.14,2.215,2.215,0,0,0,1.021.416l-.147-.616a1.82,1.82,0,0,1-.85-.348,2.9,2.9,0,0,1-1.206-2.172l2.2,1.43c0-.076,0-.185-.012-.342a3.944,3.944,0,0,0-1.472-2.84" transform="translate(-901.622 -217.865)"/><path class="ah" d="M926.687,238.606a1.463,1.463,0,0,1-.6-1.08c-.071-.8.57-.536,1.168-.147l.073.047.066.737a.9.9,0,0,1-.007.232c-.061.295-.287.477-.7.211m-.195-3.765a1.376,1.376,0,0,0-1-.294l.172.589a1.107,1.107,0,0,1,.788.214,1.872,1.872,0,0,1,.8,1.451l.007.086-.021-.014c-1.2-.777-1.815-.652-1.723.369a2.618,2.618,0,0,0,1.066,1.839c.447.29.756.211.906-.007l.019.012.092.562.515.335a9.857,9.857,0,0,1-.139-1.045l-.142-1.586a3.209,3.209,0,0,0-1.346-2.51" transform="translate(-902.07 -218.119)"/><path class="ah" d="M931.5,238.147l-.593-.385-.4,1.991c-.067.322-.129.611-.165.916l-.019-.013c-.1-.393-.214-.8-.35-1.25l-.831-2.789-.608-.394,1.571,5.017.544.354.85-3.447" transform="translate(-902.434 -218.322)"/><path class="ah" d="M932.912,240.746c0-.5.189-1.055.762-.682a2.4,2.4,0,0,1,.9,1.764l-1.667-1.082m.762-1.2c-.914-.593-1.382.05-1.268,1.334a4.249,4.249,0,0,0,1.733,3.14,2.208,2.208,0,0,0,1.021.415l-.147-.615a1.823,1.823,0,0,1-.85-.348,2.9,2.9,0,0,1-1.206-2.172l2.2,1.43c0-.076,0-.185-.012-.342a3.942,3.942,0,0,0-1.472-2.84" transform="translate(-902.894 -218.692)"/></g></g></g></g></g></g></svg>