<svg xmlns="http://www.w3.org/2000/svg" width="21.921" height="21.921" viewBox="0 0 21.921 21.921"><defs><style>.a{fill:#307fe2;}</style></defs><path class="a" d="M54.061,37a1.061,1.061,0,1,0,1.061,1.061A1.062,1.062,0,0,0,54.061,37Zm0,1.414a.354.354,0,1,1,.354-.354A.354.354,0,0,1,54.061,38.414Z" transform="translate(-34.614 -24.271)"/><path class="a" d="M22.921,14.789a2.475,2.475,0,1,0-2.829,2.447V20.8a1.414,1.414,0,0,1-2.829,0V10.9a.708.708,0,0,0,.707-.707V9.409a4.764,4.764,0,0,0,3.536-4.59v-1.7a1.416,1.416,0,0,0-1.414-1.414h-.707A.708.708,0,0,0,18.678,1h-.707a.708.708,0,0,0-.707.707v.707a.708.708,0,0,0,.707.707h.707a.708.708,0,0,0,.707-.707h.707a.708.708,0,0,1,.707.707v1.7a4.056,4.056,0,0,1-2.839,3.858.706.706,0,0,0-.7-.606h-.707a.706.706,0,0,0-.7.606,4.056,4.056,0,0,1-2.839-3.858v-1.7a.708.708,0,0,1,.707-.707h.707a.708.708,0,0,0,.707.707h.707a.708.708,0,0,0,.707-.707V1.707A.708.708,0,0,0,15.85,1h-.707a.708.708,0,0,0-.707.707h-.707a1.416,1.416,0,0,0-1.414,1.414h-.707V2.414a.708.708,0,0,0-.707-.707h-.707a.708.708,0,0,0-.707.707v.707H8.071V2.414a.708.708,0,0,0-.707-.707H6.657a.708.708,0,0,0-.707.707v.707H4.536V2.414a.708.708,0,0,0-.707-.707H3.121a.708.708,0,0,0-.707.707v.707H1.707A.708.708,0,0,0,1,3.829V19.386a.708.708,0,0,0,.707.707h14.85V20.8a2.121,2.121,0,0,0,4.243,0V17.236A2.477,2.477,0,0,0,22.921,14.789ZM18.678,2.414h-.707V1.707h.707Zm-3.536-.707h.707v.707h-.707Zm1.414,7.071h.707v1.414h-.707Zm-.707.63v.784a.708.708,0,0,0,.707.707v1.414H12.782L11.6,15.263,9.15,9.309,7,13.973,5.815,11.607H3.121V8.071H13.61A4.736,4.736,0,0,0,15.85,9.409ZM2.716,16.358l3,1.07a2.745,2.745,0,0,0-.463,1.463Zm.406-.606V12.314H5.378l1.646,3.291,2.09-4.529,2.5,6.067,1.649-4.123h3.3v4.95H6.209a2.07,2.07,0,0,1,.344-.457l.4-.395Zm9.941-8.388H2.414V15.5l-.707-.252V6.657H12.691A4.789,4.789,0,0,0,13.062,7.364Zm-2.869-4.95H10.9V4.536h-.707Zm-3.536,0h.707V4.536H6.657Zm-3.536,0h.707V4.536H3.121ZM2.414,3.829v.707a.708.708,0,0,0,.707.707h.707a.708.708,0,0,0,.707-.707V3.829H5.95v.707a.708.708,0,0,0,.707.707h.707a.708.708,0,0,0,.707-.707V3.829H9.486v.707a.708.708,0,0,0,.707.707H10.9a.708.708,0,0,0,.707-.707V3.829h.707v.991a4.7,4.7,0,0,0,.141,1.131H1.707V3.829ZM1.707,16.35l3.036,3.036H1.707ZM5.95,19.386v-.414a2.069,2.069,0,0,1,.023-.293H16.557v.707Zm14.5-2.829a1.768,1.768,0,1,1,1.768-1.768A1.77,1.77,0,0,1,20.446,16.557Z" transform="translate(-1 -1)"/></svg>