<svg xmlns="http://www.w3.org/2000/svg" width="16.81" height="16.809" viewBox="0 0 16.81 16.809"><defs><style>.a{fill:none;stroke:#307fe2;}</style></defs><path class="a" d="M19.892,16.921a13.322,13.322,0,0,0-2.783-1.862c-.834-.4-1.14-.392-1.73.033-.491.355-.809.685-1.375.562a8.2,8.2,0,0,1-2.762-2.044A8.143,8.143,0,0,1,9.2,10.847c-.12-.57.211-.884.562-1.375.425-.59.438-.9.033-1.73A13.058,13.058,0,0,0,7.931,4.959c-.607-.607-.743-.475-1.078-.355a6.132,6.132,0,0,0-.987.524A2.977,2.977,0,0,0,4.682,6.38c-.235.508-.508,1.453.879,3.922a21.887,21.887,0,0,0,3.848,5.132h0l0,0,0,0h0a21.972,21.972,0,0,0,5.132,3.848c2.469,1.387,3.415,1.115,3.922.879a2.926,2.926,0,0,0,1.251-1.185A6.132,6.132,0,0,0,20.247,18C20.367,17.664,20.5,17.528,19.892,16.921Z" transform="translate(-4.013 -4.031)"/></svg>