<svg xmlns="http://www.w3.org/2000/svg" width="17.382" height="17.382" viewBox="0 0 17.382 17.382"><defs><style>.a{fill:#307fe2;}</style></defs><g transform="translate(-3.375 -3.375)"><path class="a" d="M18.858,17.911l-2.2-2.2,2.2-2.2a.668.668,0,0,0-.944-.944l-2.2,2.2-2.2-2.2a.668.668,0,0,0-.944.944l2.2,2.2-2.2,2.2a.646.646,0,0,0,0,.944.663.663,0,0,0,.944,0l2.2-2.2,2.2,2.2a.671.671,0,0,0,.944,0A.663.663,0,0,0,18.858,17.911Z" transform="translate(-3.645 -3.643)"/><path class="a" d="M12.066,4.545a7.518,7.518,0,1,1-5.319,2.2,7.471,7.471,0,0,1,5.319-2.2m0-1.17a8.691,8.691,0,1,0,8.691,8.691,8.69,8.69,0,0,0-8.691-8.691Z"/></g></svg>