<svg xmlns="http://www.w3.org/2000/svg" width="135.977" height="66.674" viewBox="0 0 135.977 66.674"><defs><style>.a{fill:#c2cbf4;}.ae,.af,.ag,.ai,.aj,.ak,.al,.am,.b,.d,.g,.j,.k,.m,.w,.x,.y,.z{fill:none;}.b,.d,.k{stroke:#fff;}.ae,.af,.ag,.ai,.aj,.al,.am,.b,.d,.g,.k,.m,.w,.x,.y,.z{stroke-linecap:round;}.ae,.af,.ag,.ai,.aj,.am,.b,.d,.g,.k,.m,.w,.x,.y,.z{stroke-linejoin:round;}.b{stroke-width:1.181px;}.c{fill:#a5b1e7;}.d{stroke-width:1.338px;}.an,.e{fill:#3a4782;}.f{fill:#324177;}.g,.m{stroke:#a5b1e7;}.g{stroke-width:1.433px;}.h{fill:#b4c1ef;}.i{fill:#d7ddf7;}.j{stroke:#e7f1fd;stroke-width:0.69px;}.ak,.al,.j{stroke-miterlimit:10;}.k{stroke-width:1.027px;}.l{fill:#d6dfff;}.m{stroke-width:1.569px;}.n{fill:#fec9cf;}.o{fill:#2a3165;}.p{fill:#fdc5ce;}.q{fill:#96a5ce;}.r{fill:#7389bb;}.s{fill:#ec6168;}.t{fill:#fec9d1;}.u{fill:#ee84ac;}.v{fill:#212a6b;}.ae,.ak,.al,.am,.w{stroke:#212a6b;}.w,.x{stroke-width:0.646px;}.af,.ag,.x{stroke:#ee84ac;}.y{stroke:#dd5260;}.ai,.aj,.y,.z{stroke-width:0.969px;}.z{stroke:#7389bb;}.aa{fill:#ccdfff;}.ab{fill:#f3f8ff;}.ac{fill:#5b7ff7;}.ad{fill:#ee84aa;}.ae,.ag{stroke-width:0.63px;}.af{stroke-width:0.533px;}.ah{fill:#f4b5c1;}.ai{stroke:#181d55;}.aj{stroke:#426eea;}.an{font-size:8px;font-family:BebasNeueBold, Bebas Neue;letter-spacing:0.1em;}</style></defs><g transform="translate(-9.906 -66.365)"><g transform="translate(9.906 66.365)"><g transform="translate(0 5.28)"><g transform="translate(114.146 6.224)"><g transform="translate(0 3.251)"><path class="a" d="M625.832,172.261l.829-1.331a32.432,32.432,0,0,0-1.342-9.552l-1.561,1.966,1-3.69a36.148,36.148,0,0,0-4.99-9.292l-1,2.867.246-3.856a31.764,31.764,0,0,0-4.772-4.961,53.625,53.625,0,0,0-.43,11.3l3.852,1.747-3.674.108a33.732,33.732,0,0,0,3.695,12.188l3.016.637-2.512.256a21.782,21.782,0,0,0,7.532,7.987,35.225,35.225,0,0,0,.934-7.2Z" transform="translate(-613.68 -144.412)"/><g transform="translate(1.214 2.843)"><path class="b" d="M620.532,159.448a158.561,158.561,0,0,1,10.741,31.378" transform="translate(-620.451 -159.448)"/><line class="b" x1="4.165" y1="1.789" transform="translate(4.227 20.153)"/><path class="b" d="M646.972,202a31.97,31.97,0,0,0,.813-4.917" transform="translate(-641.892 -189.967)"/><path class="b" d="M620.1,182.445a19.211,19.211,0,0,0,2.809,1.87" transform="translate(-620.102 -178.097)"/></g></g><g transform="translate(7.88)"><path class="c" d="M656.4,159.257l-1-1.47a36.735,36.735,0,0,1,1.1-10.873l1.854,2.156-1.293-4.133A40.95,40.95,0,0,1,662.3,134.2l1.262,3.2-.45-4.354a35.975,35.975,0,0,1,5.182-5.828,60.781,60.781,0,0,1,.987,12.77L665,142.134l4.164-.041a38.216,38.216,0,0,1-3.642,13.961l-3.387.855,2.855.178c-3.612,6.732-8.173,9.376-8.173,9.376a39.912,39.912,0,0,1-1.377-8.114Z" transform="translate(-655.362 -127.216)"/><g transform="translate(1.453 3.251)"><path class="d" d="M673.818,144.412a179.637,179.637,0,0,0-10.769,36" transform="translate(-663.049 -144.412)"/><line class="d" y1="2.21" x2="4.636" transform="translate(2.333 22.998)"/><path class="d" d="M688.018,193.908a36.225,36.225,0,0,1-1.138-5.531" transform="translate(-682.375 -180.065)"/><path class="d" d="M708.234,170.426a21.764,21.764,0,0,1-3.1,2.241" transform="translate(-697.18 -165.508)"/></g></g><g transform="translate(4.464 33.348)"><path class="e" d="M642.747,314.569H649.6a.762.762,0,0,0,.755-.657l1.307-9.437a.762.762,0,0,0-.755-.866H641.44a.762.762,0,0,0-.755.866l1.307,9.437A.762.762,0,0,0,642.747,314.569Z" transform="translate(-640.039 -303.608)"/><rect class="f" width="12.269" height="1.876" rx="0.938" transform="translate(12.269 1.876) rotate(180)"/></g></g><g transform="translate(11.254 14.463)"><path class="g" d="M73.246,170.8a8.852,8.852,0,0,0-3.575,5.433c-.537,3.432,0,17.548,0,17.548" transform="translate(-69.432 -170.797)"/></g><g transform="translate(12.489 12.417)"><path class="g" d="M76.973,159.97a55.516,55.516,0,0,0-1,10.835V185" transform="translate(-75.969 -159.97)"/></g><g transform="translate(12.191 12.339)"><path class="g" d="M74.391,159.76s1.526-1.109,1.526,1.926.537,17.611.384,20.91" transform="translate(-74.391 -159.563)"/></g><g transform="translate(9.899)"><path class="a" d="M62.588,101.827a9.168,9.168,0,0,0,1.553,2.179c.381.393,1.866,2.163,1.719,2.7a.1.1,0,0,1-.006.018,5.474,5.474,0,0,1,3.523-.448,9.1,9.1,0,0,1,2.182.988,3.424,3.424,0,0,0,2.308.473,1.412,1.412,0,0,0,.786-.466.89.89,0,0,0,.15-.875c-.212-.5-.865-.608-1.292-.939-.54-.42-.721-1.218-1.319-1.547-.249-.135-.543-.175-.782-.331s-.387-.513-.19-.715.555-.071.81.08c1.55.914,3.317,1.758,5.088,1.418a2.347,2.347,0,0,0,1.215-.574,1.287,1.287,0,0,0,.378-1.246c-.132-.436-.405-.7-.853-.617a12.189,12.189,0,0,1-5.536-.264c-.172-.049-.383-.172-.334-.344.04-.147.233-.172.384-.172l5.349.055a2.138,2.138,0,0,0,1.55-.393,1.44,1.44,0,0,0,.2-1.844.9.9,0,0,0-.93-.325,3.388,3.388,0,0,0-.958.411,7.754,7.754,0,0,1-3.412.893,1.5,1.5,0,0,1-.651-.086.587.587,0,0,1-.377-.5c-.006-.362.405-.577.758-.651.678-.144,1.384-.1,2.056-.258a1.808,1.808,0,0,0,1.464-1.292,4.722,4.722,0,0,0-.083-1.114,1.093,1.093,0,0,1,.34-.976c.022-.009.04-.022.061-.031a4.449,4.449,0,0,1-2.136.025,6.106,6.106,0,0,0-2.145-.12,1.836,1.836,0,0,0-1.519,1.347c-.037.212-.021.436-.077.644a.535.535,0,0,1-.43.433.5.5,0,0,1-.466-.439,2.118,2.118,0,0,1,.347-1.138c.16-.371.175-.905-.19-1.077a.722.722,0,0,0-.574.031,1.622,1.622,0,0,0-.9,1.184,2.505,2.505,0,0,0,.233,1.5,2.958,2.958,0,0,1,.313.758.64.64,0,0,1-.295.7c-.325.15-.7-.135-.847-.46a2.45,2.45,0,0,1-.077-1.442,5.84,5.84,0,0,0,.178-1.452,1.354,1.354,0,0,0-.743-1.178,1.245,1.245,0,0,0-1.418.549,2.59,2.59,0,0,0-.313,1.587,5.82,5.82,0,0,0,.516,2.041c.15.325.319.746.074,1.01a.568.568,0,0,1-.758-.012,1.26,1.26,0,0,1-.365-.733,3.7,3.7,0,0,1-.021-1.387c.077-.423.193-.951-.147-1.218a.95.95,0,0,0-.875-.043,2.048,2.048,0,0,0-1.3.97,1.917,1.917,0,0,0,.31,1.829c.365.531.871.951,1.273,1.458a1.7,1.7,0,0,1,.46,1.347c-.1.479-.7.85-1.1.568a.926.926,0,0,1-.313-.8,5.427,5.427,0,0,0,.021-.893,1.187,1.187,0,0,0-.93-.967,1.1,1.1,0,0,0-1.172.626A1.881,1.881,0,0,0,62.588,101.827Z" transform="translate(-62.265 -94.293)"/><path class="c" d="M62.588,101.827a9.168,9.168,0,0,0,1.553,2.179c.381.393,1.866,2.163,1.719,2.7.141-.4,2.51-6.822,11.811-11.643.022-.009.04-.022.061-.031a4.449,4.449,0,0,1-2.136.025,6.106,6.106,0,0,0-2.145-.12,1.836,1.836,0,0,0-1.519,1.347c-.037.212-.021.436-.077.644a.535.535,0,0,1-.43.433.5.5,0,0,1-.466-.439,2.118,2.118,0,0,1,.347-1.138c.16-.371.175-.905-.19-1.077a.722.722,0,0,0-.574.031,1.622,1.622,0,0,0-.9,1.184,2.505,2.505,0,0,0,.233,1.5,2.958,2.958,0,0,1,.313.758.64.64,0,0,1-.295.7c-.325.15-.7-.135-.847-.46a2.45,2.45,0,0,1-.077-1.442,5.84,5.84,0,0,0,.178-1.452,1.354,1.354,0,0,0-.743-1.178,1.245,1.245,0,0,0-1.418.549,2.59,2.59,0,0,0-.313,1.587,5.82,5.82,0,0,0,.516,2.041c.15.325.319.746.074,1.01a.568.568,0,0,1-.758-.012,1.26,1.26,0,0,1-.365-.733,3.7,3.7,0,0,1-.021-1.387c.077-.423.193-.951-.147-1.218a.95.95,0,0,0-.875-.043,2.048,2.048,0,0,0-1.3.97,1.917,1.917,0,0,0,.31,1.829c.365.531.871.951,1.273,1.458a1.7,1.7,0,0,1,.46,1.347c-.1.479-.7.85-1.1.568a.926.926,0,0,1-.313-.8,5.427,5.427,0,0,0,.021-.893,1.187,1.187,0,0,0-.93-.967,1.1,1.1,0,0,0-1.172.626A1.881,1.881,0,0,0,62.588,101.827Z" transform="translate(-62.265 -94.293)"/></g><g transform="translate(0 8.371)"><path class="a" d="M9.993,147.747a4.689,4.689,0,0,1,2.843-3.148,6.641,6.641,0,0,0,1.01-.4,1.147,1.147,0,0,0,.618-.842,1,1,0,0,0-.923-.987,1.691,1.691,0,0,0-1.329.574c-.2.207-.527.459-.721.247a.426.426,0,0,1-.077-.321,2.353,2.353,0,0,1,2.049-1.941,7.278,7.278,0,0,1,3,.355,1.253,1.253,0,0,0,.745.035.438.438,0,0,0,.263-.6.643.643,0,0,0-.564-.18l-1.552.025c-.175,0-.413-.053-.406-.228,0-.116.124-.189.229-.241L16.8,139.3a6.093,6.093,0,0,1,2.07-.718,3.091,3.091,0,0,1,2.655,1.136c.583.735-.336,2.377.578,3,0,.007,0,.013-.005.02-1.144.981-2.895.841-4.181,1.627a4.943,4.943,0,0,0-1.923,2.7c-.367,1.066-.546,2.19-.908,3.257a19.693,19.693,0,0,1-2.888,5.01c-.052.025-.1.052-.153.07-.648.239-.176-1.355-.562-1.927a4.192,4.192,0,0,1-.9-1.837,2.416,2.416,0,0,1,1.272-2.168,5.969,5.969,0,0,1,1.981-.663,1.492,1.492,0,0,0,1.243-.878.664.664,0,0,0-.527-.871,5.6,5.6,0,0,0-2.887,1.58c-.3.314-.653.7-1.087.639a.815.815,0,0,1-.626-.613A1.784,1.784,0,0,1,9.993,147.747Z" transform="translate(-9.906 -138.572)"/><g transform="translate(2.244 1.377)"><path class="h" d="M31.723,148.643c-1.144.981-2.895.841-4.181,1.627a4.944,4.944,0,0,0-1.923,2.7c-.367,1.066-.546,2.19-.908,3.257a19.968,19.968,0,0,1-2.935,5.076,6.728,6.728,0,0,1,2.669-.537,2.906,2.906,0,0,0,2.347-1.2,3.213,3.213,0,0,0-.113-2.548,4,4,0,0,1-.325-2.557c.158-.457.643-.884,1.089-.7a.8.8,0,0,1,.434.638,2.652,2.652,0,0,1-.054.8,5.124,5.124,0,0,0-.009,2.011A2.253,2.253,0,0,0,29,158.767a1.728,1.728,0,0,0,2.427-1.719,3.125,3.125,0,0,0-1.111-1.866,5.405,5.405,0,0,1-1.4-1.7,1.493,1.493,0,0,1,.567-1.923,1.394,1.394,0,0,1,1.6.541,3.177,3.177,0,0,1,.5,1.723,9.514,9.514,0,0,0,.165,1.809c.145.567.572,1.161,1.156,1.131.521-.028.882-.542,1.039-1.04a5.8,5.8,0,0,1,.487-1.481c.3-.461.843-.763,1.007-1.288a1.506,1.506,0,0,0-.446-1.415,13.457,13.457,0,0,0-1.207-.979.825.825,0,0,1-.377-.7.587.587,0,0,1,.536-.441,1.329,1.329,0,0,1,.714.182,3.9,3.9,0,0,1,1.777,1.866,2.959,2.959,0,0,0,.413.786.673.673,0,0,0,.8.207.773.773,0,0,0,.279-.781,3.6,3.6,0,0,1-.1-.87c.07-.56.628-.961.712-1.519a1.266,1.266,0,0,0-.729-1.23,3.072,3.072,0,0,0-1.488-.252,6.364,6.364,0,0,1-1.521-.059,5.739,5.739,0,0,1,3.494.112,3.471,3.471,0,0,0-6.558.777Z" transform="translate(-21.776 -145.853)"/></g></g><g transform="translate(15.067 11.702)"><path class="a" d="M89.6,158.952c.69-.132,1.577.838,1.663,1.534s-.12,1.409-.043,2.111.632,1.455,1.329,1.341.964-.982,1.2-1.663a2.757,2.757,0,0,1,.666-1.145,1.349,1.349,0,0,1,1.224-.378.9.9,0,0,1,.678,1c-.114.522-.715.749-1.1,1.12-1.43,1.372.123,4.035,1.648,4.569a9.774,9.774,0,0,0-.273-1.841,1.821,1.821,0,0,1,.786-1.617,1.233,1.233,0,0,1,1.666.276,1.47,1.47,0,0,1-.089,1.461,14.257,14.257,0,0,1-.933,1.221,4.166,4.166,0,0,0-.681,3.29,2.2,2.2,0,0,0,.626,1.2,1.15,1.15,0,0,0,1.273.206c.531-.292.629-1,.666-1.6s.141-1.313.675-1.6c.46-.1.872.39.9.862a3.948,3.948,0,0,1-.319,1.375,4.538,4.538,0,0,0,.856,4.173,2.456,2.456,0,0,0,1.273.865,1.421,1.421,0,0,0,.69-.009,1.155,1.155,0,0,0,.7-.476c.288-.445.2-1.034.35-1.544a3.007,3.007,0,0,1,.875-1.227,4.255,4.255,0,0,0,.97-1.166c.693-1.464-.8-1.847-1.676-2.526-.5-.384-.825-1.148-.42-1.629.362-.427,1.031-.338,1.58-.227s1.24.16,1.553-.3a1,1,0,0,0-.233-1.237,2.945,2.945,0,0,0-1.221-.589q-1.515-.456-3.029-.914a2.5,2.5,0,0,1-1.185-.614.854.854,0,0,1,.012-1.2c.362-.267.881-.061,1.249.2a2.013,2.013,0,0,0,1.206.558,1,1,0,0,0,.828-.7,1.685,1.685,0,0,0-.058-1.123c-.911-2.421-3.79-1.375-5.677-1.375a.761.761,0,0,1-.632-.206.536.536,0,0,1,.249-.736,1.772,1.772,0,0,1,.862-.126,1.251,1.251,0,0,0,.838-.209.848.848,0,0,0,.181-.96,1.583,1.583,0,0,0-.718-.734,5.027,5.027,0,0,0-3.075-.365A21.568,21.568,0,0,0,89.6,158.952Z" transform="translate(-89.604 -156.191)"/><g transform="translate(0 2.557)"><path class="c" d="M89.6,169.919c.69-.132,1.577.838,1.663,1.534s-.12,1.409-.043,2.111.632,1.455,1.329,1.341.964-.982,1.2-1.663a2.757,2.757,0,0,1,.666-1.145,1.349,1.349,0,0,1,1.224-.378.9.9,0,0,1,.678,1c-.114.522-.715.749-1.1,1.12-1.43,1.372.123,4.035,1.648,4.569a9.774,9.774,0,0,0-.273-1.841,1.821,1.821,0,0,1,.786-1.617,1.233,1.233,0,0,1,1.666.276,1.47,1.47,0,0,1-.089,1.461,14.262,14.262,0,0,1-.933,1.221,4.166,4.166,0,0,0-.681,3.29,2.2,2.2,0,0,0,.626,1.2,1.15,1.15,0,0,0,1.273.206c.531-.292.629-1,.666-1.6s.141-1.313.675-1.6c.46-.1.872.39.9.862a3.948,3.948,0,0,1-.319,1.375,4.538,4.538,0,0,0,.856,4.173,2.456,2.456,0,0,0,1.273.865,1.42,1.42,0,0,0,.69-.009C102.2,166.9,89.984,169.823,89.6,169.919Z" transform="translate(-89.604 -169.714)"/></g></g><g transform="translate(7.886 34.5)"><path class="f" d="M51.623,279.324l.774,13.488h8.746L61.3,290l.614-10.675a2.407,2.407,0,0,0-2.4-2.545H54.027A2.407,2.407,0,0,0,51.623,279.324Z" transform="translate(-51.619 -276.779)"/><path class="e" d="M62.267,280.331c0,5.1,3.378,9.283,7.672,9.668l.614-10.675a2.407,2.407,0,0,0-2.4-2.545H62.842A11.1,11.1,0,0,0,62.267,280.331Z" transform="translate(-60.254 -276.779)"/></g><g transform="translate(38.134 30.379)"><g transform="translate(9.532 4.588)"><path class="i" d="M262.132,289.2a1.521,1.521,0,0,1,.542-1.835c.347-.187.776-.179,1.116-.377a1.971,1.971,0,0,0,.75-1.458,2.634,2.634,0,0,1,.592-1.554,1.619,1.619,0,0,1,1.262-.364,4.794,4.794,0,0,1,1.3.378,3.088,3.088,0,0,1,.036-1.164,1.05,1.05,0,0,1,.789-.779c.423-.06.891.225,1.258.007.314-.187.344-.617.458-.965a1.691,1.691,0,0,1,1.525-1.133,8.767,8.767,0,0,0,1.115.051,5.4,5.4,0,0,0,1.316-.636c.446-.2,1.1-.168,1.275.289a.924.924,0,0,1-.342.943,5.273,5.273,0,0,0-.789.711c-.285.4-.307.95-.621,1.328-.3.361-.809.5-1.094.869-.382.5-.238,1.243-.57,1.775-.467.749-1.721.846-1.954,1.7-.1.371.031.806-.182,1.127-.273.411-.95.382-1.215.8a1.664,1.664,0,0,0-.159.67,2.693,2.693,0,0,1-2.275,2.084A3.692,3.692,0,0,1,262.132,289.2Z" transform="translate(-262.031 -279.253)"/><path class="j" d="M266.125,296.393a31.7,31.7,0,0,0,7.592-6.927,13.579,13.579,0,0,1,3.04-3.235" transform="translate(-265.351 -284.912)"/></g><g transform="translate(7.858)"><path class="c" d="M253.818,268.274a6.651,6.651,0,0,0,.082-1.948c-.188-.628-.814-1.149-.709-1.8.087-.537.633-.849,1.1-1.124s.975-.705.9-1.243c-.086-.592-.856-.962-.808-1.559.052-.641.959-.82,1.269-1.383.4-.734-.37-1.76.112-2.446.348-.5,1.144-.472,1.519-.947a5.139,5.139,0,0,0,.295-.53.564.564,0,0,1,.485-.313c.255.021.408.3.431.56a5.645,5.645,0,0,0,.022.766c.155.675,1.025.923,1.349,1.535a2.116,2.116,0,0,1-.162,1.762,2.5,2.5,0,0,0-.285,1.764c.136.373.458.677.5,1.072.072.722-.827,1.262-.778,1.986.032.483.487.868.494,1.352s-.413.843-.568,1.294a5.036,5.036,0,0,0,.033,1.691,2.384,2.384,0,0,1-.986,1.937,2.2,2.2,0,0,1-2.566.034C254.658,270.114,253.81,269.471,253.818,268.274Z" transform="translate(-253.179 -254.983)"/><path class="j" d="M268.835,279.148c1.909-4.344.253-9.562,1.879-14.02" transform="translate(-265.875 -263.21)"/></g><g transform="translate(0 4.588)"><path class="a" d="M221.157,291.065a2.4,2.4,0,0,1-1.4-1.445c-.171-.5-.206-1.1-.625-1.419-.4-.3-.955-.208-1.435-.338a1.547,1.547,0,0,1-.828-.581c-.262-.357-.1-.656-.163-1.067a.915.915,0,0,0-.378-.643c-.333-.211-.808-.112-1.113-.362-.416-.341-.233-1.082-.62-1.456-.417-.4-1.183-.1-1.643-.457a1.209,1.209,0,0,1-.35-1.009,2.389,2.389,0,0,0-.083-1.082,10.633,10.633,0,0,0-.749-1,.721.721,0,0,1-.138-.543.614.614,0,0,1,.577-.406c.546-.033,1,.39,1.525.553.337.106.7.1,1.046.173a1.316,1.316,0,0,1,.633.293c.146.137.145.294.251.446a1.343,1.343,0,0,0,1.01.395c.64.038,1.444-.164,1.968.316.473.433.457,1.255.978,1.628.436.313,1.083.181,1.516.5.512.375.471,1.164.84,1.68.394.552,1.149.672,1.746.992a2.728,2.728,0,0,1,1.382,2.67A2.929,2.929,0,0,1,221.157,291.065Z" transform="translate(-211.614 -279.253)"/><path class="j" d="M229.441,296.27c-.192-2.559-2.056-4.7-4.145-6.192s-4.477-2.537-6.506-4.108" transform="translate(-217.433 -284.7)"/></g><g transform="translate(7.011 13.948)"><path class="e" d="M258.741,334.966H253.2a.609.609,0,0,1-.6-.492l-.976-4.987a.609.609,0,0,1,.6-.726h7.49a.609.609,0,0,1,.6.726l-.976,4.987A.609.609,0,0,1,258.741,334.966Z" transform="translate(-251.065 -328.761)"/><path class="f" d="M.75,0H9.063a.75.75,0,0,1,.75.75v0a.75.75,0,0,1-.75.75H.75A.75.75,0,0,1,0,.75v0A.75.75,0,0,1,.75,0Z" transform="translate(0 0)"/></g></g><g transform="translate(74.497 26.859)"><g transform="translate(7.768)"><path class="c" d="M445.143,250.18a2.382,2.382,0,0,1,.33-1.981,9.3,9.3,0,0,1,1.3-1.443,3.521,3.521,0,0,0,1.016-1.7,6.553,6.553,0,0,0-.03-1.814,2.713,2.713,0,0,1,.308-1.739c.377-.537,1.022-.65,1.556-.948a5.374,5.374,0,0,0,1.767-2.009,8.748,8.748,0,0,1,1-1.46,1.976,1.976,0,0,1,1.429-.722,1.3,1.3,0,0,1,1.2,1.029c.26,1.241-1.173,2.269-1.013,3.533.1.794.792,1.3,1.032,2.05a2.3,2.3,0,0,1-.394,2.012,2.81,2.81,0,0,1-1.6.983c-.45.108-.984.192-1.2.671-.251.555.111,1.2.423,1.711a3.349,3.349,0,0,1,.627,2.131,3.106,3.106,0,0,1-1,1.707,13.009,13.009,0,0,1-1.864,1.565c-.478.329-1.114.838-1.607.268-.4-.465-.326-1.225-.736-1.712a4.434,4.434,0,0,0-1.286-.891A2.451,2.451,0,0,1,445.143,250.18Z" transform="translate(-445.046 -236.366)"/><path class="k" d="M465.288,260.635s.152-9.659,4.485-16.437" transform="translate(-461.461 -242.717)"/></g><g transform="translate(10.705 8.615)"><path class="a" d="M460.652,289.851a3.562,3.562,0,0,1,1.2-1.681,7.787,7.787,0,0,0,1.459-1.418,10.577,10.577,0,0,0,.892-2,3.072,3.072,0,0,1,1.248-1.652c.743-.375,1.59-.048,2.4-.018,1.393.051,2.691-.795,4.065-1.073a2.624,2.624,0,0,1,2.067.309,2,2,0,0,1,.737,2.141,1.8,1.8,0,0,1-1.327,1.129,9.439,9.439,0,0,1-1.7.1,2.269,2.269,0,0,0-1.588.617c-.615.652-.709,1.784-1.29,2.48a2.706,2.706,0,0,1-2.211.777,4.618,4.618,0,0,0-2.335.31,7.281,7.281,0,0,0-1.4,1.266c-.425.415-1.151,1-1.7.62A1.85,1.85,0,0,1,460.652,289.851Z" transform="translate(-460.58 -281.933)"/><path class="k" d="M465.288,298.221s4.164-6.784,10.572-8.259" transform="translate(-464.398 -288.444)"/></g><g transform="translate(0 8.325)"><path class="l" d="M414.554,288.933a1.9,1.9,0,0,1-1.863-.576c-.344-.462-.4-1.127-.757-1.579a1.57,1.57,0,0,0-1.418-.534c-.5.048-.966.244-1.46.32a1.665,1.665,0,0,1-1.455-.381,7.246,7.246,0,0,1-.783-1.271A4.83,4.83,0,0,0,405.5,283.7a4.157,4.157,0,0,1-1.28-1.26,1.605,1.605,0,0,1-.012-1.733,1.272,1.272,0,0,1,1.487-.137,11.4,11.4,0,0,0,1.509.718,5.018,5.018,0,0,0,2.189-.2,2.133,2.133,0,0,1,2.115.582c.438.54.538,1.36,1.017,1.852a3.077,3.077,0,0,0,1.416.638,4.1,4.1,0,0,1,2.29,1.786,3.5,3.5,0,0,1,.436,2.487c-.147.634-.342.405-.835.374A6.462,6.462,0,0,0,414.554,288.933Z" transform="translate(-403.959 -280.399)"/><path class="k" d="M428.358,298.069a22.741,22.741,0,0,0-9.558-6.249" transform="translate(-415.994 -289.661)"/></g><g transform="translate(8.397 16.614)"><path class="f" d="M455.453,325.643l-.666,5.659h-5.744l-.666-5.659a1.3,1.3,0,0,1,1.295-1.4h4.487A1.3,1.3,0,0,1,455.453,325.643Z" transform="translate(-448.373 -324.243)"/><path class="e" d="M461.46,325.643l-.666,5.659H456.45l-.666-5.659a1.3,1.3,0,0,1,1.295-1.4h3.086A1.3,1.3,0,0,1,461.46,325.643Z" transform="translate(-454.379 -324.243)"/></g></g></g><g transform="translate(3.756 0)"><g transform="translate(0 61.572)"><ellipse class="m" cx="19.44" cy="2.159" rx="19.44" ry="2.159"/><ellipse class="m" cx="19.44" cy="2.159" rx="19.44" ry="2.159" transform="translate(91.653)"/></g><g transform="translate(7.331)"><path class="n" d="M167.88,369.569l1.445,5.948,2.288-.381-.843-6.049Z" transform="translate(-149.102 -311.856)"/><path class="o" d="M172.017,391.578s-.412,1.8-.082,2.268c.247.351,2.171.611,3.831.535,5.128-.236,2.3-1.137.99-1.669-1.176-.478-1.673-1.568-2.206-1.269A2.788,2.788,0,0,1,172.017,391.578Z" transform="translate(-152.287 -329.945)"/><path class="n" d="M93.039,369.569l-1.445,5.948-2.288-.381.843-6.049Z" transform="translate(-85.383 -311.856)"/><path class="o" d="M75.258,391.578s.412,1.8.082,2.268c-.247.351-2.171.611-3.831.535-5.128-.236-2.3-1.137-.99-1.669,1.176-.478,1.673-1.568,2.206-1.269A2.788,2.788,0,0,0,75.258,391.578Z" transform="translate(-68.554 -329.945)"/><path class="p" d="M165.269,165.335a53.21,53.21,0,0,0,2.906,4.75c1.839,2.171,3.67-.627,2.446-2.24-.426-.561-2.225-3.871-2.225-3.871Z" transform="translate(-146.985 -145.521)"/><path class="p" d="M188.047,129.115a2.628,2.628,0,0,0,.527-1.438c-.04-.491-.117-1.6-.165-1.84s.385-.431.531.347.232.949.527.282,1.126-2.26,1.338-2.241-.307,1.256-.438,1.7,1.19-2,1.526-1.87-1.115,2.192-1.064,2.416,1.521-1.638,1.732-1.511-1.3,1.994-1.261,2.108,1.123-.894,1.3-.666-1.18,1.611-1.719,1.929a6.139,6.139,0,0,0-1.374,1.821c-1.224,1.983-3.844,6.837-4.91,7.906,0,0-3.111,1.252-1.463-2.777C183.133,135.281,186.924,130.734,188.047,129.115Z" transform="translate(-161.081 -113.145)"/><path class="q" d="M90.36,222.505l-4.482,29.744,4.382.713,6.1-20.863,4.53,20.52,4.264-.8-2.931-29.314Z" transform="translate(-82.603 -192.986)"/><path class="r" d="M105.1,230.991a13.147,13.147,0,0,0,3.518-3.307s6,1.138,9.42-1.508l-12.19-.154Z" transform="translate(-98.187 -195.839)"/><path class="s" d="M170.422,130.655l2.859,7.153a5.828,5.828,0,0,1-3.744,2.035Z" transform="translate(-150.446 -118.501)"/><path class="s" d="M113.544,118.868s-4.4,1.4-5.647,2.015.183,6.777,0,10.012-.518,8.242-.518,8.242a14.418,14.418,0,0,0,12.507.143s.618-17.359.13-18.183S113.544,118.868,113.544,118.868Z" transform="translate(-100.039 -108.942)"/><path class="t" d="M136.358,106.748s.215,1.8-1.4,1.985-2.227-2.056-2.227-2.056l.266-2.633.1-.986,3.275.09-.01,3.5Z" transform="translate(-120.595 -96.121)"/><path class="u" d="M137.51,103.148l-.01,3.5a3.841,3.841,0,0,1-3.365-2.6l.1-.986Z" transform="translate(-121.737 -96.121)"/><path class="p" d="M134.516,77.854s.763,6.136-2.167,6.716-4.029-3.052-4.213-4.243S129.357,76.114,134.516,77.854Z" transform="translate(-116.859 -75.254)"/><path class="p" d="M126,95.68s-.7-.733-1.038-.214.5,1.628,1.069,1.17Z" transform="translate(-114.23 -89.814)"/><path class="v" d="M124.279,83.281a3.588,3.588,0,0,1-.571-1.314,1.606,1.606,0,0,1,1.332-1.483c.088.538.3,1.049.417,1.582a2.165,2.165,0,0,1-.156,1.589.794.794,0,0,1-.272.283c-.266.151-.086-.2-.234-.4A.528.528,0,0,0,124.279,83.281Z" transform="translate(-113.281 -77.815)"/><path class="p" d="M85.884,172.583s-1.1,4.192-1.465,5.373,4.79,8.222,4.79,8.222a6,6,0,0,0,1.844-1.74s-3.194-5.546-3.327-6.237,1.292-4.274,1.292-4.274Z" transform="translate(-81.405 -152.502)"/><path class="s" d="M88.231,138.138a4.612,4.612,0,0,0,4.074,2.5s.935-5.013,1.063-6.928c.2-2.931-1-4.182-1-4.182S90.714,129.957,88.231,138.138Z" transform="translate(-84.511 -117.584)"/><path class="v" d="M144.618,95.247a.2.2,0,1,1-.2-.249A.228.228,0,0,1,144.618,95.247Z" transform="translate(-129.916 -89.585)"/><path class="w" d="M142.532,92.492a1.087,1.087,0,0,1,.9-.122" transform="translate(-128.546 -87.41)"/><path class="v" d="M156.084,94.423a.2.2,0,1,1-.2-.249A.228.228,0,0,1,156.084,94.423Z" transform="translate(-139.214 -88.917)"/><path class="w" d="M154,91.668a1.086,1.086,0,0,1,.9-.122" transform="translate(-137.844 -86.741)"/><path class="x" d="M148.237,104.875a1.315,1.315,0,0,0,.987.163" transform="translate(-133.173 -97.594)"/><path class="x" d="M151.414,94.41a.375.375,0,0,0,.014.319,2.745,2.745,0,0,0,.173.281.511.511,0,0,1,.091.311.239.239,0,0,1-.207.221" transform="translate(-135.725 -89.108)"/><path class="y" d="M174.892,151.535s.1-4.474.055-6.187" transform="translate(-154.788 -130.416)"/><path class="y" d="M119.59,209.838s5.458.363,8.9-1.3" transform="translate(-109.941 -181.657)"/><path class="y" d="M109.78,166.634a41.993,41.993,0,0,0,.845-5.049" transform="translate(-101.986 -143.583)"/><path class="z" d="M130.411,257.621s-2.418,8.483-3.529,12.283" transform="translate(-115.855 -221.463)"/><path class="v" d="M131.031,67.239c.34-.308.623-.753,1.048-.853.535-.126,1.046.344,1.589.455a3.617,3.617,0,0,0,.939-.01,1.325,1.325,0,0,1,.912.214,1.779,1.779,0,0,1,.544,1.173,3,3,0,0,1-.357,2,1.363,1.363,0,0,1-1.583.635c-.462-.178-.837-.662-1.319-.714s-.892.331-1.362.366c-.32.024-.643-.115-.96-.069-.385.055-.725.443-1.114.433a1.225,1.225,0,0,1-.908-.731,1.563,1.563,0,0,1,.77-2.112,6.652,6.652,0,0,1,1-.294A2.288,2.288,0,0,0,131.031,67.239Z" transform="translate(-117.014 -66.365)"/><g transform="translate(11.514 5.725)"><path class="aa" d="M131.712,103.431a4.587,4.587,0,0,1-.765-.978,3.109,3.109,0,0,0,.6,1.1A.826.826,0,0,0,131.712,103.431Z" transform="translate(-130.666 -101.356)"/><path class="aa" d="M139.28,98.566a4.45,4.45,0,0,1-1.009,2.3,2.33,2.33,0,0,1-1.735.559,3.221,3.221,0,0,1-2.4-1.52,1.182,1.182,0,0,0,.552-1.489,4.263,4.263,0,0,0,.856.012c1.227-.105,1.9-.708,2.244-.376A3.261,3.261,0,0,0,139.28,98.566Z" transform="translate(-133.251 -97.706)"/><path class="aa" d="M129.459,96.648a13.257,13.257,0,0,0,1.435.71.438.438,0,0,1,.124.361s-1.2-.684-1.5-.912A.384.384,0,0,0,129.459,96.648Z" transform="translate(-129.459 -96.648)"/><path class="ab" d="M144.267,98.566a4.45,4.45,0,0,1-1.009,2.3,2.557,2.557,0,0,1-1.977.319c-1.44-.311-.955-2.373-.751-2.756,1.227-.105,1.9-.708,2.244-.376A3.261,3.261,0,0,0,144.267,98.566Z" transform="translate(-138.238 -97.706)"/></g></g><g transform="translate(97.058 2.745)"><path class="n" d="M634.68,371.746l1.408,5.957,2.291-.367-.805-6.054Z" transform="translate(-617.378 -316.381)"/><path class="o" d="M639.134,395.244s-.32,1.332.011,1.756c.247.316,2.017.359,3.677.29,5.128-.213,2.079-1.108.727-1.271-1.258-.152-1.349-1.166-1.882-.9A3.059,3.059,0,0,1,639.134,395.244Z" transform="translate(-620.877 -335.678)"/><path class="n" d="M580.7,371.331l-.549,6.1-2.32-.039-.061-6.107Z" transform="translate(-571.228 -316.381)"/><path class="o" d="M564.35,395.8s.4,1.252.068,1.675c-.247.317-2.213.415-3.874.454-4.51.106-1.6-.708-.378-1.3.958-.464,1.467-1.068,2-.8A1.988,1.988,0,0,0,564.35,395.8Z" transform="translate(-555.283 -336.234)"/><path class="v" d="M579.668,83.4a5.523,5.523,0,0,0,.023,2.437,4.959,4.959,0,0,1-.039,2.432c-.411,1.143-1.616,1.933-1.793,3.135a2.3,2.3,0,0,0,.77,1.989,3.172,3.172,0,0,0,2.039.759c1.05.027,2.073-.368,3.123-.38,1.287-.015,2.52.544,3.806.6a2.655,2.655,0,0,0,1.72-.406,2.659,2.659,0,0,0,.617-3.382c-.32-.555-.85-1.023-.933-1.658-.1-.745.438-1.416.335-2.16-.092-.67-.88-1.036-1.165-1.622a3.77,3.77,0,0,1-.209-1.532,2.876,2.876,0,0,0-2.65-2.686,7.029,7.029,0,0,0-3.807.76C580.493,81.76,580,82.309,579.668,83.4Z" transform="translate(-571.283 -80.884)"/><path class="v" d="M582.622,198.364s.823,1.893,3.836,17.076c1.348,6.794,3.588,17.169,3.588,17.169s-4.057,1.483-7.212,1.02l-3.66-21.765-1,22.33a9.011,9.011,0,0,1-5.879-.671s-.281-21.99,3.686-35.212Z" transform="translate(-566.783 -176.111)"/><path class="ac" d="M590.446,131.166l3.656,1.528-1.985,11.2s-4.225.652-6.642-.053c0,0-1.343-5.2-1.175-6.545a28.363,28.363,0,0,0-.3-4.733l3.35-1.421Z" transform="translate(-576.278 -121.638)"/><path class="p" d="M545.23,133.036a8.727,8.727,0,0,0-.72-2.109,6.4,6.4,0,0,1-1.343-2.048c.138-.183.851.766.895.682s-.83-1.77-.646-1.836,1.031,1.608,1.1,1.441-.768-1.958-.485-2.01,1,2.159.965,1.793-.293-1.553-.124-1.536a6.286,6.286,0,0,1,.71,1.953c.131.565.174.384.525-.14.25-.373.538-.366.464-.185s-.368,1.027-.474,1.405a6.382,6.382,0,0,0,.485,2.1Z" transform="translate(-543.161 -118.407)"/><g transform="translate(11.062 6.441)"><path class="p" d="M602.879,119.793c1.379.156,1.9-1.755,1.9-1.755l-.111-1.108-.116-1.137-.086-.842-2.793.078.008,2.982v.087l0,.043A1.432,1.432,0,0,0,602.879,119.793Z" transform="translate(-601.673 -114.951)"/><path class="ad" d="M601.683,118.1l0,.043a2.929,2.929,0,0,0,2.942-1.681l-.068-.668-.086-.842-2.793.078.008,2.982Z" transform="translate(-601.675 -114.951)"/></g><path class="p" d="M592.609,90.3a8.815,8.815,0,0,1,.122,3.2c-.281,1.674.243,3.467,1.919,3.617,2.026.181,2.97-1.294,3.428-2.634a10.163,10.163,0,0,0,.406-1.759C598.664,91.563,597.639,88.6,592.609,90.3Z" transform="translate(-583.261 -88.101)"/><path class="p" d="M621.171,107.759s.685-.714,1.012-.208-.461,1.592-1.012,1.146Z" transform="translate(-606.423 -102.362)"/><g transform="translate(9.786 4.709)"><path class="v" d="M607.025,109.454a.2.2,0,1,0,.194-.243A.222.222,0,0,0,607.025,109.454Z" transform="translate(-604.737 -108.564)"/><path class="ae" d="M606.974,106.767a1.059,1.059,0,0,0-.873-.119" transform="translate(-603.988 -106.443)"/><ellipse class="v" cx="0.193" cy="0.243" rx="0.193" ry="0.243" transform="translate(0.175 0.494)"/><path class="ae" d="M595.795,105.963a1.058,1.058,0,0,0-.873-.119" transform="translate(-594.922 -105.791)"/><path class="af" d="M602.338,119.409a.449.449,0,0,1-.65.228" transform="translate(-600.409 -116.834)"/><path class="ag" d="M600.727,111.159a.366.366,0,0,1-.013.311,2.689,2.689,0,0,1-.168.274c-.056.092-.156.188-.144.295s.177.186.257.224" transform="translate(-599.365 -110.144)"/><g transform="translate(5.198 0.764)"><path class="ag" d="M622.932,109.836a.5.5,0,0,0-.515.32" transform="translate(-622.417 -109.833)"/><path class="ag" d="M623.645,110.088s-.112.165.09.373" transform="translate(-623.388 -110.04)"/></g></g><path class="ac" d="M558.225,138.655a11.826,11.826,0,0,0-1.913,3.625c-.873,2.45-.906,2.316-.906,2.316l-1.557-3.548-1.632.762s1.249,5.689,2.316,7.116c.753,1.007,1.208.973,2.047-.369s2.618-5.236,2.618-5.236S559.6,139.595,558.225,138.655Z" transform="translate(-550.505 -127.733)"/><g transform="translate(16.051 23.75)"><path class="ah" d="M632,211.711c.381.315.241.665,1.14,1.607.263.275-.3.437-1.226-.611-.093-.106-.168-.2-.228-.276C631.151,211.729,632,211.711,632,211.711Z" transform="translate(-630.857 -210.728)"/><path class="ah" d="M632.682,215.058a10.3,10.3,0,0,0,1.385,1.641c.126.037.175-.365-.067-.7,0,0,.325-.044-.269-.828a10.829,10.829,0,0,1-1.049-1.792A5.751,5.751,0,0,0,632.682,215.058Z" transform="translate(-631.75 -212.08)"/><path class="p" d="M628.136,206.511a9.229,9.229,0,0,0,.012,2.3,9.39,9.39,0,0,0,1.471,2.314c.15.182.395-.126-.1-.916-.426-.678-.361-1.009-.361-1.009s.613-1.141.046-1.708S628.136,206.511,628.136,206.511Z" transform="translate(-628.062 -206.511)"/></g><path class="ac" d="M629.379,139.365s3.531,5.211,3.259,6.862c-.325,1.977-3.6,7.076-3.6,7.076l-1.539-1.362s2.461-4.146,2.575-5.122c.044-.381-1.937-2.386-1.937-2.386S628.07,140.674,629.379,139.365Z" transform="translate(-611.555 -128.309)"/><path class="v" d="M598.6,88.305c.462.134.954.164,1.418.291a2.7,2.7,0,0,1,1.388,1.142,2.907,2.907,0,0,0,.636-3.049,2.8,2.8,0,0,0-2.4-1.521,6.938,6.938,0,0,0-2.17.193c-.623.137-1.033.18-.9.834A2.893,2.893,0,0,0,598.6,88.305Z" transform="translate(-586.454 -84.339)"/><path class="v" d="M592,88.082a.391.391,0,0,0-.014-.292.341.341,0,0,0-.174-.123,1.255,1.255,0,0,0-1.276.3A1.908,1.908,0,0,0,590,89.2c-.025.3-.063.908.162,1.149.269.288.583-.075.77-.272A4.272,4.272,0,0,0,592,88.082Z" transform="translate(-581.126 -86.328)"/><line class="ai" x1="0.973" y1="5.012" transform="translate(11.268 30.741)"/><path class="aj" d="M584.289,152.652a22.249,22.249,0,0,1-.365-4.1" transform="translate(-576.204 -135.759)"/><line class="aj" x1="1.842" y1="1.876" transform="translate(15.21 14.737)"/><g transform="translate(9.371 5.252)"><path class="aa" d="M617.394,115.779a7.86,7.86,0,0,0,.784-1.14,6.578,6.578,0,0,1-.6,1.271A.821.821,0,0,1,617.394,115.779Z" transform="translate(-612.731 -113.509)"/><path class="aa" d="M597.578,113.906a2.8,2.8,0,0,1-2.223,1.635,3,3,0,0,1-1.04-.156,2.234,2.234,0,0,1-.694-.4,2.935,2.935,0,0,1-.861-2.624s1.1.23,1.568-.118c.353-.26.594.255,1.872.355l.04,0a2.089,2.089,0,0,0,.963-.065A1.15,1.15,0,0,0,597.578,113.906Z" transform="translate(-592.728 -111.505)"/><path class="aa" d="M616.818,108.663a3.545,3.545,0,0,1-1.025,1.027.438.438,0,0,0-.114.444,4.575,4.575,0,0,0,1.217-1.324A.682.682,0,0,0,616.818,108.663Z" transform="translate(-611.318 -108.663)"/><path class="ab" d="M594.314,115.384a2.234,2.234,0,0,1-.694-.4,2.935,2.935,0,0,1-.861-2.624s1.1.23,1.568-.118c.353-.26.594.255,1.872.355a1.262,1.262,0,0,1,.394.858C596.618,114.354,596.444,115.491,594.314,115.384Z" transform="translate(-592.728 -111.505)"/></g></g></g></g><g transform="translate(57.264 85.375)"><g transform="translate(0 0)"><g transform="translate(0 11.963)"><line class="ak" x2="49.154" transform="translate(0 1.078)"/><line class="al" y2="0.698" transform="translate(7.022 0.729)"/><line class="al" y2="0.698" transform="translate(14.044 0.729)"/><line class="al" y2="0.698" transform="translate(21.066 0.729)"/><line class="al" y2="0.698" transform="translate(28.088 0.729)"/><line class="al" y2="0.698" transform="translate(35.11 0.729)"/><line class="al" y2="0.698" transform="translate(42.132 0.729)"/><path class="am" d="M246.332,399.2,245,398.118l1.332-1.078" transform="translate(-245 -397.04)"/><path class="am" d="M497.953,399.2l1.332-1.078-1.332-1.078" transform="translate(-450.131 -397.04)"/></g><text class="an" transform="translate(25.03 5.319)"><tspan x="-5.168" y="0">2 M</tspan></text></g></g></g></svg>