<svg xmlns="http://www.w3.org/2000/svg" xmlns:xlink="http://www.w3.org/1999/xlink" width="38" height="37" viewBox="0 0 38 37"><defs><style>.a{fill:#eee;}.b{fill:none;stroke:#307fe2;stroke-linecap:round;stroke-linejoin:round;}.c{filter:url(#a);}</style><filter id="a" x="0" y="0" width="38" height="37" filterUnits="userSpaceOnUse"><feOffset dx="1" dy="3" input="SourceAlpha"/><feGaussianBlur stdDeviation="2" result="b"/><feFlood flood-opacity="0.161"/><feComposite operator="in" in2="b"/><feComposite in="SourceGraphic"/></filter></defs><g transform="translate(-330 -165)"><g class="c" transform="matrix(1, 0, 0, 1, 330, 165)"><rect class="a" width="26" height="25" rx="3" transform="translate(5 3)"/></g><path class="b" d="M12.471,6H5.1A2.1,2.1,0,0,0,3,8.1V22.837a2.1,2.1,0,0,0,2.1,2.1H19.837a2.1,2.1,0,0,0,2.1-2.1V15.471" transform="translate(334.826 166.058)"/><path class="b" d="M23.049,3.472a2.232,2.232,0,0,1,3.157,3.157l-10,10L12,17.678l1.052-4.209Z" transform="translate(332.14 167.008)"/></g></svg>