<svg xmlns="http://www.w3.org/2000/svg" width="23" height="23" viewBox="0 0 23 23"><defs><style>.a{fill:#307fe2;stroke:#307fe2;}</style></defs><path class="a" d="M22.563,11.542a11,11,0,0,1-17.9,8.585,1.064,1.064,0,0,1-.082-1.579l.5-.5a1.066,1.066,0,0,1,1.415-.088A8.162,8.162,0,1,0,5.971,5.616L8.222,7.867a.71.71,0,0,1-.5,1.212H1.272a.71.71,0,0,1-.71-.71V1.921a.71.71,0,0,1,1.212-.5l2.19,2.19a11,11,0,0,1,18.6,7.933Zm-8.024,3.494.436-.56a1.064,1.064,0,0,0-.187-1.494l-1.805-1.4V6.95a1.065,1.065,0,0,0-1.065-1.065h-.71A1.065,1.065,0,0,0,10.143,6.95v6.017l2.9,2.257a1.065,1.065,0,0,0,1.494-.187Z" transform="translate(-0.063 -0.063)"/></svg>