<svg xmlns="http://www.w3.org/2000/svg" xmlns:xlink="http://www.w3.org/1999/xlink" width="97.414" height="75.62" viewBox="0 0 97.414 75.62"><defs><style>.a{fill:none;}.b{fill:#0e24a5;}.c{fill:#ffc1c1;}.d{fill:#425ac2;}.e{fill:#fe958e;}.f{fill:#e98896;}.g{fill:#ffb3b6;}.h{fill:#7f4d4e;}.i{clip-path:url(#a);}.j{fill:#ccc;}.k{fill:#fee2e3;}.l{fill:#fff;}.m{clip-path:url(#b);}.n{fill:#03053f;}.o{fill:#ffcace;}.p{clip-path:url(#c);}.q{clip-path:url(#f);}.r{clip-path:url(#g);}</style><clipPath id="a"><path class="a" d="M423.545,326.3c1.238,2.26-.488,3.459-2.748,4.7a4.666,4.666,0,1,1-4.481-8.185C418.576,321.57,422.307,324.036,423.545,326.3Z" transform="translate(-413.89 -322.476)"/></clipPath><clipPath id="b"><path class="a" d="M536.559,352.606H528.08l-2.172-13.661a2.113,2.113,0,0,1,2.332-2.07h8.829a2.113,2.113,0,0,1,2.331,2.07Z" transform="translate(-525.9 -336.874)"/></clipPath><clipPath id="c"><rect class="a" width="9.846" height="9.846" rx="3.184"/></clipPath><clipPath id="f"><path class="a" d="M525.371,366.612h8.479s2.212,2.587,3.769,10.288c1.33,6.584,2.7,16.548,2.7,16.548H520.149s1.449-14.651,2.581-19.415A29.23,29.23,0,0,1,525.371,366.612Z" transform="translate(-520.149 -366.612)"/></clipPath><clipPath id="g"><path class="a" d="M566.792,409.888h10.083l-1.757,12.927h-6.568Z" transform="translate(-566.792 -409.888)"/></clipPath></defs><g transform="translate(-413.89 -291.44)"><g transform="translate(490.219 300.071)"><g transform="translate(0 30.11)"><path class="b" d="M565.429,390.592c-.87-.173-3.217-2-5.129-7.042-1.093-2.88-4.173-17.734,0-18.778s3.39,6.433,3.39,13.3C563.69,382.261,565.429,390.592,565.429,390.592Z" transform="translate(-558.177 -364.675)"/></g><g transform="translate(6.931)"><path class="b" d="M573.513,364.479c-2.194-.146-1.739-22.342-1.912-27.558s-1.217-24.689,1.738-27.819,6-.348,6.259,3.695c.124,1.917-.521,15.865-.869,19.864s-.782,13.041-1.13,18.778S576.121,364.653,573.513,364.479Z" transform="translate(-571.28 -307.756)"/></g><g transform="translate(11.946 13.863)"><path class="b" d="M582.063,377.083s4.872-9.611,6.085-17.039c2.174-13.3,2.608-26.254-.348-26.08s-3.17,13.216-3.3,18.778c-.348,14.431-3.738,23.473-3.738,23.473Z" transform="translate(-580.759 -333.962)"/></g><g transform="translate(12.627 33.855)"><path class="c" d="M582.249,394.484l-.2-.072c.017-.048,1.734-4.811,2.869-8,2.229-6.259,2.6-14.577,2.6-14.66l.214.009c0,.083-.375,8.434-2.614,14.723C583.983,389.673,582.266,394.437,582.249,394.484Z" transform="translate(-582.047 -371.754)"/></g><g transform="translate(9.665 43.503)"><path class="c" d="M576.662,401.734h-.214c0-2.968.516-11.656.521-11.743l.214.013C577.178,390.091,576.662,398.772,576.662,401.734Z" transform="translate(-576.448 -389.991)"/></g><g transform="translate(2.727 39.59)"><path class="c" d="M567.018,398.942a76.954,76.954,0,0,1-2.874-8.49,27.925,27.925,0,0,1-.785-7.858l.213.015a27.693,27.693,0,0,0,.78,7.79,76.536,76.536,0,0,0,2.864,8.462Z" transform="translate(-563.332 -382.594)"/></g><g transform="translate(9.772 43.031)"><path class="d" d="M577.954,389.751a.652.652,0,1,1-.652-.652A.652.652,0,0,1,577.954,389.751Z" transform="translate(-576.65 -389.099)"/></g><g transform="translate(2.209 39.032)"><path class="d" d="M563.657,382.192a.652.652,0,1,1-.652-.652A.652.652,0,0,1,563.657,382.192Z" transform="translate(-562.353 -381.54)"/></g><g transform="translate(17.553 33.208)"><path class="d" d="M592.662,371.182a.652.652,0,1,1-.652-.652A.652.652,0,0,1,592.662,371.182Z" transform="translate(-591.358 -370.53)"/></g></g><g transform="translate(445.488 334.969)"><g transform="translate(0 12.122)"><path class="d" d="M474.162,397.125l3.78-.481a.619.619,0,0,1,.649.853l-1.474,3.514a.619.619,0,0,1-1.063.135l-2.307-3.033A.619.619,0,0,1,474.162,397.125Z" transform="translate(-473.62 -396.639)"/></g><g transform="translate(11.149 5.723)"><path class="d" d="M497.476,389.982l-2.648-3.9a.765.765,0,0,1,.577-1.193l4.7-.344a.765.765,0,0,1,.745,1.1l-2.051,4.243A.765.765,0,0,1,497.476,389.982Z" transform="translate(-494.695 -384.544)"/></g><g transform="translate(7.87 10.67)"><path class="d" d="M488.5,397.092l.522-2.816a.465.465,0,0,1,.759-.269l2.177,1.859a.465.465,0,0,1-.147.792l-2.7.956A.465.465,0,0,1,488.5,397.092Z" transform="translate(-488.497 -393.896)"/></g><g transform="translate(3.156 4.507)"><path class="d" d="M481.773,382.442l2.6,2.787a.619.619,0,0,1-.314,1.025l-3.713.858a.619.619,0,0,1-.731-.784l1.114-3.644A.619.619,0,0,1,481.773,382.442Z" transform="translate(-479.586 -382.245)"/></g><g transform="translate(2.384)"><path class="b" d="M478.252,388.062l-.126-.173c.021-.015,2.168-1.589,5.385-4.408,3.139-2.751,2.525-5.714,1.877-8.851-.059-.286-.119-.573-.176-.862l.209-.042c.057.289.116.576.176.861.662,3.2,1.288,6.222-1.945,9.056S478.274,388.046,478.252,388.062Z" transform="translate(-478.126 -373.725)"/></g><g transform="translate(8.23 9.331)"><rect class="b" width="0.214" height="3.555" transform="translate(0 0.057) rotate(-15.349)"/></g><g transform="translate(10.142 5.906)"><rect class="b" width="0.214" height="3.556" transform="translate(0 0.192) rotate(-63.468)"/></g><g transform="translate(5.707 7.334)"><rect class="b" width="0.214" height="3.555" transform="matrix(0.246, -0.969, 0.969, 0.246, 0, 0.207)"/></g></g><g transform="translate(494.776 354.1)"><path class="c" d="M566.792,409.888h10.083l-1.757,12.927h-6.568Z" transform="translate(-566.792 -409.888)"/></g><g transform="translate(429.489 329.042)"><path class="e" d="M458.123,362.52l4.916,21.791-3.907,13.936h-3.226l1.726-13.977s-2.621-6.677-3.932-10.2l-2.212.491.737,10.2-2.589,13.485h-3.226l.409-13.362s-3.487-16.812-3.441-18.924C443.291,365.615,458.123,362.52,458.123,362.52Z" transform="translate(-443.377 -362.52)"/></g><g transform="translate(419.243 312.752)"><path class="b" d="M450.23,351.211l-15.238,2.95L424.96,343.038a2.663,2.663,0,0,1-.176-3.917l6.571-6.608a2.663,2.663,0,0,1,3.918.153Z" transform="translate(-424.009 -331.727)"/></g><g transform="translate(419.811 313.598)"><path class="f" d="M429.861,336.806l-1.282,1.289a1.093,1.093,0,0,1-1.538-.087l-1.589-1.58a1.093,1.093,0,0,1-.1-1.538l1.282-1.289a1.094,1.094,0,0,1,1.538.087l1.589,1.58A1.093,1.093,0,0,1,429.861,336.806Z" transform="translate(-425.084 -333.325)"/></g><g transform="translate(419.233 320.79)"><path class="b" d="M424.095,347.413c-.391.978.388,13.623,1.109,14.54,1.434,1.826,12.909,2.608,12.909,2.608v-2.8l-8.476-3-1.239-10.5S424.686,345.934,424.095,347.413Z" transform="translate(-423.99 -346.921)"/></g><g transform="translate(413.89 307.858)"><path class="g" d="M423.545,326.3c1.238,2.26-.488,3.459-2.748,4.7a4.666,4.666,0,1,1-4.481-8.185C418.576,321.57,422.307,324.036,423.545,326.3Z" transform="translate(-413.89 -322.476)"/></g><g transform="translate(415.056 303.157)"><path class="h" d="M416.437,323.221s5.349-4.21,6.2-6.237c.8-1.908.31-3.37-1.793-3.394-2.7-.031-4.138,2.816-4.708,6.019A15.189,15.189,0,0,0,416.437,323.221Z" transform="translate(-416.094 -313.589)"/></g><g transform="translate(413.89 307.858)"><g class="i"><g transform="translate(-1.109 0.48)"><path class="h" d="M415.19,326.644s1.169,1.162,1.008,1.323a1.6,1.6,0,0,0-.879,1.529c.123,1,1.168,1.081,1.81.678s1.65,1.321.167,2.33-4.865-1.473-5.352-3.239.307-5.063,1.109-5.708,2.895.715,2.895.715Z" transform="translate(-411.794 -323.383)"/></g></g></g><g transform="translate(419.825 310.04)"><path class="h" d="M430.68,327.551a3.267,3.267,0,1,1-4.62.013A3.266,3.266,0,0,1,430.68,327.551Z" transform="translate(-425.109 -326.6)"/></g><g transform="translate(420.769 311.028)"><rect class="g" width="2.386" height="1.237" rx="0.619" transform="translate(0 1.692) rotate(-45.164)"/></g><g transform="translate(449.08 335.841)"><g transform="translate(0 0.244)"><g transform="translate(0.662)"><path class="j" d="M482.844,405.888l-1.18-.517,12.981-29.538,1.18.517Z" transform="translate(-481.663 -375.834)"/></g><g transform="translate(0 28.559)"><path class="c" d="M482.78,430.982a1.184,1.184,0,1,1-1.206-1.162A1.185,1.185,0,0,1,482.78,430.982Z" transform="translate(-480.412 -429.82)"/></g></g><g transform="translate(16.667)"><path class="j" d="M525.005,405.671l1.18-.517L513.1,375.373l-1.18.517Z" transform="translate(-511.917 -375.373)"/><g transform="translate(12.563 28.802)"><path class="c" d="M535.665,430.982a1.184,1.184,0,1,0,1.206-1.162A1.184,1.184,0,0,0,535.665,430.982Z" transform="translate(-535.665 -429.82)"/></g></g></g><g transform="translate(427.523 291.44)"><rect class="k" width="74.712" height="46.204" rx="8.827"/></g><g transform="translate(431.701 295.365)"><path class="c" d="M3.184,0H6.662A3.183,3.183,0,0,1,9.846,3.183V6.662A3.184,3.184,0,0,1,6.662,9.846H3.184A3.184,3.184,0,0,1,0,6.662V3.184A3.184,3.184,0,0,1,3.184,0Z" transform="translate(0 0)"/></g><g transform="translate(445.952 295.365)"><rect class="c" width="9.846" height="9.846" rx="3.184" transform="translate(0 0)"/></g><g transform="translate(460.202 295.365)"><rect class="c" width="9.846" height="9.846" rx="3.184" transform="translate(0 0)"/></g><g transform="translate(474.452 295.365)"><path class="c" d="M3.183,0H6.662A3.184,3.184,0,0,1,9.846,3.184V6.662A3.184,3.184,0,0,1,6.662,9.846H3.183A3.183,3.183,0,0,1,0,6.662V3.183A3.183,3.183,0,0,1,3.183,0Z" transform="translate(0 0)"/></g><g transform="translate(488.703 295.365)"><g transform="translate(0 0)"><rect class="c" width="9.846" height="9.846" rx="3.184"/></g></g><g transform="translate(431.701 309.373)"><rect class="c" width="9.846" height="9.846" rx="3.184"/></g><g transform="translate(445.952 309.373)"><rect class="c" width="9.846" height="9.846" rx="3.184"/></g><g transform="translate(460.202 309.373)"><rect class="c" width="9.846" height="9.846" rx="3.184"/></g><g transform="translate(488.703 309.373)"><rect class="c" width="9.846" height="9.846" rx="3.184"/></g><g transform="translate(431.701 323.382)"><rect class="c" width="9.846" height="9.846" rx="3.184"/></g><g transform="translate(445.952 323.382)"><rect class="c" width="9.846" height="9.846" rx="3.184"/></g><g transform="translate(460.202 323.382)"><rect class="c" width="9.846" height="9.846" rx="3.184"/></g><g transform="translate(474.452 323.382)"><path class="c" d="M3.184,0H6.662A3.184,3.184,0,0,1,9.846,3.184V6.662A3.184,3.184,0,0,1,6.662,9.846H3.183A3.183,3.183,0,0,1,0,6.662V3.184A3.184,3.184,0,0,1,3.184,0Z"/></g><g transform="translate(488.703 323.382)"><rect class="c" width="9.846" height="9.846" rx="3.184"/></g><g transform="translate(441.996 364.729)"><path class="d" d="M470.267,429.981h-3.248v2.136h5.647c.372,0,.5-.837.175-1.018Z" transform="translate(-467.019 -429.981)"/></g><g transform="translate(432.494 364.729)"><path class="d" d="M452.31,429.981h-3.253v2.136H454.7c.373,0,.5-.837.175-1.018Z" transform="translate(-449.057 -429.981)"/></g><g transform="translate(481.369 316.401)"><path class="l" d="M545.708,338.625a8.469,8.469,0,0,1,3.488,3.394c.645,1.243,3.967,7.912,3.8,8.977s-10.076,7.537-10.076,7.537l-1.475-3.277s6.881-4.588,6.636-5.243-3.71-7.594-3.71-7.594Z" transform="translate(-541.448 -338.625)"/></g><g transform="translate(473.467 339.426)"><path class="g" d="M532.444,382.149H526.51l.321,25.648h2.293s1.736-12.9,2.39-20.035h.833C532.453,385.892,532.457,384.03,532.444,382.149Z" transform="translate(-526.51 -382.149)"/></g><g transform="translate(475.124 338.785)"><path class="g" d="M535.1,380.938l-5.46,2.655c.834,1.686,1.645,3.362,2.366,5.092l.68-.331,9.191,17.809,2.062-1s-6.363-19.274-8.125-22.73A15,15,0,0,0,535.1,380.938Z" transform="translate(-529.642 -380.938)"/></g><g transform="translate(473.144 315.475)"><path class="l" d="M536.559,352.606H528.08l-2.172-13.661a2.113,2.113,0,0,1,2.332-2.07h8.829a2.113,2.113,0,0,1,2.331,2.07Z" transform="translate(-525.9 -336.874)"/></g><g transform="translate(470.587 365.038)"><path class="b" d="M524.069,430.564h2.594v1.989H521.4c-.347,0-.467-.78-.162-.948Z" transform="translate(-521.066 -430.564)"/></g><g transform="translate(484.988 362.948)"><path class="b" d="M550.428,427.748l2.332-1.134.87,1.789-4.731,2.3c-.312.152-.761-.5-.561-.781Z" transform="translate(-548.289 -426.614)"/></g><g transform="translate(470.102 331.206)"><path class="d" d="M525.371,366.612h8.479s2.212,2.587,3.769,10.288c1.33,6.584,2.7,16.548,2.7,16.548H520.149s1.449-14.651,2.581-19.415A29.23,29.23,0,0,1,525.371,366.612Z" transform="translate(-520.149 -366.612)"/></g><g transform="translate(473.144 315.475)"><g class="m" transform="translate(0 0)"><g transform="translate(-1.588 13.281)"><rect class="n" width="17.203" height="0.982"/></g><g transform="translate(-1.588 10.881)"><rect class="n" width="17.203" height="0.982"/></g><g transform="translate(-1.588 8.48)"><rect class="n" width="17.203" height="0.982"/></g><g transform="translate(-1.588 6.08)"><rect class="n" width="17.203" height="0.982"/></g><g transform="translate(-1.588 3.679)"><rect class="n" width="17.203" height="0.982"/></g><g transform="translate(-1.588 1.279)"><rect class="n" width="17.203" height="0.982"/></g></g></g><g transform="translate(478.039 312.54)"><path class="f" d="M536.024,335.192h1.546a.93.93,0,0,0,.87-.98v-1.905a.93.93,0,0,0-.87-.98h-1.546a.93.93,0,0,0-.87.98v1.905A.93.93,0,0,0,536.024,335.192Z" transform="translate(-535.154 -331.326)"/></g><g transform="translate(476.067 305.922)"><path class="o" d="M531.636,325.432c.621,2.1,2.378,1.78,4.48,1.159a3.968,3.968,0,0,0-2.249-7.611C531.766,319.6,531.015,323.33,531.636,325.432Z" transform="translate(-531.425 -318.815)"/></g><g transform="translate(475.893 305.241)"><path class="e" d="M533.845,317.818c-2.427.932-2.611,2.181-2.734,2.959-.109.691.368.246,1.505.4.67.09,1.321.092,1.382.522.14.977.011,8.981.5,8.981s7.567.43,7.731-.225-1.168-9.892-3.809-11.736C536.277,317.222,534.907,317.41,533.845,317.818Z" transform="translate(-531.096 -317.528)"/></g><g transform="translate(460.356 306.705)"><path class="l" d="M517.391,329.116s-6.609-.28-7.455-.491-6.447-8.328-6.447-8.328l-1.762.916s5.075,9.517,6.133,9.94,7.319,2.8,7.319,2.8,1.147,0,1.884-1.884C517.839,330.082,517.391,329.116,517.391,329.116Z" transform="translate(-501.727 -320.296)"/></g><g transform="translate(460.202 295.365)"><g class="p" transform="translate(0 0)"><g transform="translate(-5.252 -5.251)"><g transform="translate(0 0)"><g transform="translate(0)"><rect class="d" width="1.125" height="27.652" transform="matrix(0.707, -0.707, 0.707, 0.707, 0, 0.796)"/></g></g><g transform="translate(0 0)"><g transform="translate(0 0)"><rect class="d" width="27.652" height="1.125" transform="translate(0 19.552) rotate(-44.996)"/></g></g></g></g></g><g transform="translate(431.701 309.373)"><g class="p"><g transform="translate(-5.252 -5.252)"><g transform="translate(0 0.001)"><g transform="translate(0 0)"><rect class="d" width="1.125" height="27.653" transform="matrix(0.707, -0.707, 0.707, 0.707, 0, 0.796)"/></g></g><g transform="translate(0.001 0)"><g transform="translate(0)"><rect class="d" width="27.653" height="1.125" transform="translate(0 19.554) rotate(-45.002)"/></g></g></g></g></g><g transform="translate(445.952 323.382)"><g class="p"><g transform="translate(-5.252 -5.252)"><rect class="d" width="1.125" height="27.652" transform="translate(0 0.796) rotate(-45)"/></g><g transform="translate(-5.252 -5.252)"><rect class="d" width="27.652" height="1.125" transform="translate(0 19.553) rotate(-45)"/></g></g></g><g transform="translate(460.133 301.356)"><rect class="l" width="3.995" height="1.481" transform="translate(0 2.825) rotate(-45)"/></g><g transform="translate(459.508 302.54)"><path class="g" d="M502.734,316.587s.508-2.485-.107-2.608c-.4-.081-.532,1.024-1.106.819-.244-.087.369-2.334-.082-2.376s-1.392,2.171-1.311,2.786a14.306,14.306,0,0,0,.843,2.3Z" transform="translate(-500.124 -312.422)"/></g><g transform="translate(462.958 300.998)"><path class="k" d="M506.645,309.866l1.047,1.047.423-1.092-.281-.313Z" transform="translate(-506.645 -309.508)"/></g><g transform="translate(464.147 300.731)"><path class="b" d="M508.893,309.27l.281.313s.4-.378.245-.532C509.236,308.866,508.893,309.27,508.893,309.27Z" transform="translate(-508.893 -309.003)"/></g><g transform="translate(470.102 331.206)"><g class="q"><g transform="translate(0.028 4.028)"><path class="b" d="M522.287,374.227h4.434s.391,5.781-3.13,6.911c-2.748.882-3.39-.652-3.39-.652Z" transform="translate(-520.201 -374.227)"/></g></g></g><g transform="translate(433.291 336.135)"><path class="g" d="M450.629,378.223s4.108-.326,4.5-.913-.717-1.5-2.217-1.37a3.447,3.447,0,0,0-2.347,1.37Z" transform="translate(-450.564 -375.928)"/></g><g transform="translate(494.776 354.1)"><g class="r"><g transform="translate(-2.478 1.087)"><rect class="k" width="18.778" height="1.043"/></g></g></g></g></svg>