<svg xmlns="http://www.w3.org/2000/svg" width="21.174" height="21.104" viewBox="0 0 21.174 21.104"><defs><style>.a{fill:#fff;}</style></defs><g transform="translate(0 -0.85)"><g transform="translate(0 0.85)"><g transform="translate(0 0)"><path class="a" d="M10.552,20.195H2.638a.88.88,0,0,1-.879-.879V3.488a.88.88,0,0,1,.879-.879h7.914a.879.879,0,0,0,0-1.759H2.638A2.641,2.641,0,0,0,0,3.488V19.316a2.641,2.641,0,0,0,2.638,2.638h7.914a.879.879,0,1,0,0-1.759Z" transform="translate(0 -0.85)"/></g></g><g transform="translate(7.035 5.247)"><path class="a" d="M183.977,112.694l-5.346-5.276a.879.879,0,1,0-1.235,1.252l3.821,3.77H170.979a.879.879,0,0,0,0,1.759h10.238l-3.821,3.77a.879.879,0,1,0,1.235,1.252l5.346-5.276a.879.879,0,0,0,0-1.252Z" transform="translate(-170.1 -107.165)"/></g></g></svg>