<svg xmlns="http://www.w3.org/2000/svg" width="15.125" height="10.625" viewBox="0 0 15.125 10.625"><defs><style>.a{fill:none;stroke:#307fe2;stroke-width:0.5px;}</style></defs><g transform="translate(-3.125 -7.625)"><path class="a" d="M17.88,10.335,14.1,14.189a.068.068,0,0,0,0,.1l2.647,2.82a.456.456,0,0,1,0,.647.458.458,0,0,1-.647,0l-2.637-2.809a.072.072,0,0,0-.1,0l-.643.654a2.831,2.831,0,0,1-2.018.851,2.887,2.887,0,0,1-2.06-.875l-.619-.629a.072.072,0,0,0-.1,0L5.28,17.753a.458.458,0,0,1-.647,0,.456.456,0,0,1,0-.647l2.647-2.82a.075.075,0,0,0,0-.1L3.495,10.335a.069.069,0,0,0-.12.049v7.71A1.128,1.128,0,0,0,4.5,19.219H16.875A1.128,1.128,0,0,0,18,18.094v-7.71A.07.07,0,0,0,17.88,10.335Z" transform="translate(0 -1.219)"/><path class="a" d="M11.113,14.312a1.911,1.911,0,0,0,1.375-.577L18,8.121a1.1,1.1,0,0,0-.7-.246H4.922a1.1,1.1,0,0,0-.7.246l5.516,5.614A1.912,1.912,0,0,0,11.113,14.312Z" transform="translate(-0.425)"/></g></svg>