<svg xmlns="http://www.w3.org/2000/svg" width="16.24" height="20.327" viewBox="0 0 16.24 20.327"><defs><style>.a{fill:#fff;}</style></defs><g transform="translate(-6.775 -3.93)"><path class="a" d="M18.8,28.336a.658.658,0,0,0-.645.518,1.273,1.273,0,0,1-.254.554.96.96,0,0,1-.818.3.976.976,0,0,1-.818-.3,1.273,1.273,0,0,1-.254-.554.658.658,0,0,0-.645-.518h0a.662.662,0,0,0-.645.808,2.27,2.27,0,0,0,2.362,1.885,2.266,2.266,0,0,0,2.362-1.885.665.665,0,0,0-.645-.808Z" transform="translate(-2.199 -6.771)"/><path class="a" d="M22.811,18.984c-.782-1.031-2.322-1.636-2.322-6.254,0-4.74-2.093-6.645-4.044-7.1-.183-.046-.315-.107-.315-.3V5.18a1.246,1.246,0,0,0-1.219-1.25h-.03a1.246,1.246,0,0,0-1.219,1.25v.147c0,.188-.132.254-.315.3C11.39,6.09,9.3,7.99,9.3,12.73c0,4.618-1.539,5.218-2.322,6.254A1.008,1.008,0,0,0,7.788,20.6h14.23A1.009,1.009,0,0,0,22.811,18.984Zm-1.981.295H8.982a.223.223,0,0,1-.168-.371,6.155,6.155,0,0,0,1.067-1.7,11.513,11.513,0,0,0,.726-4.481A7.791,7.791,0,0,1,11.67,8.32a3.26,3.26,0,0,1,1.966-1.4,1.78,1.78,0,0,0,.945-.533.4.4,0,0,1,.6-.01,1.841,1.841,0,0,0,.955.544,3.26,3.26,0,0,1,1.966,1.4,7.791,7.791,0,0,1,1.062,4.41,11.513,11.513,0,0,0,.726,4.481,6.225,6.225,0,0,0,1.092,1.722A.21.21,0,0,1,20.83,19.278Z" transform="translate(0 0)"/></g></svg>