<svg xmlns="http://www.w3.org/2000/svg" width="174.606" height="25" viewBox="0 0 174.606 25"><defs><style>.a,.b{fill:#307fe2;}.b{font-size:21px;font-family:Lato-Heavy, Lato;font-weight:800;letter-spacing:0.045em;}</style></defs><g transform="translate(-68.215 -755)"><g transform="translate(68.215 760.379)"><path class="a" d="M2457.31,311.845l-11.913-6.878.016.028a2.879,2.879,0,0,0-2.756-.111l-.091.053-.231.133-11.753,6.785a1.427,1.427,0,0,0-.522,1.95l.02.035a1.428,1.428,0,0,0,1.95.522l9.42-5.439,2.505-1.446,2.473,1.428,9.435,5.447a1.447,1.447,0,0,0,1.978-.53h0a1.448,1.448,0,0,0-.529-1.978Z" transform="translate(-2429.868 -304.586)"/><path class="a" d="M2868.59,526.291l11.913,6.878-.016-.028a2.879,2.879,0,0,0,2.756.111l.091-.052.231-.134,11.753-6.785a1.428,1.428,0,0,0,.522-1.95l-.02-.035a1.427,1.427,0,0,0-1.95-.522l-9.42,5.439-2.5,1.446-2.473-1.427-9.435-5.447a1.448,1.448,0,0,0-1.978.53h0A1.448,1.448,0,0,0,2868.59,526.291Z" transform="translate(-2856.802 -518.05)"/></g><text class="b" transform="translate(111.821 776)"><tspan x="0" y="0">RemoteState</tspan></text></g></svg>