<svg xmlns="http://www.w3.org/2000/svg" width="142.302" height="19" viewBox="0 0 142.302 19"><defs><style>.a,.b{fill:#fff;}.b{font-size:16px;font-family:Lato-Heavy, Lato;font-weight:800;letter-spacing:0.045em;}</style></defs><g transform="translate(-13.698 -18)"><g transform="translate(-2416.17 -283.53)"><path class="a" d="M2452.688,310.622l-9.906-5.719.013.023a2.394,2.394,0,0,0-2.292-.092l-.076.044-.192.111-9.773,5.642a1.187,1.187,0,0,0-.435,1.622l.017.029a1.187,1.187,0,0,0,1.621.434l7.833-4.522,2.083-1.2,2.056,1.187,7.845,4.53a1.2,1.2,0,0,0,1.644-.441h0A1.2,1.2,0,0,0,2452.688,310.622Z" transform="translate(0 0)"/><path class="a" d="M2868.468,525.834l9.906,5.719-.013-.023a2.394,2.394,0,0,0,2.292.092l.076-.044.192-.111,9.773-5.642a1.188,1.188,0,0,0,.435-1.622l-.017-.029a1.186,1.186,0,0,0-1.621-.434l-7.833,4.523-2.083,1.2-2.056-1.187-7.846-4.529a1.2,1.2,0,0,0-1.645.44h0A1.2,1.2,0,0,0,2868.468,525.834Z" transform="translate(-428.798 -214.396)"/></g><text class="b" transform="translate(56 34)"><tspan x="0" y="0">RemoteState</tspan></text></g></svg>