<svg xmlns="http://www.w3.org/2000/svg" width="20.349" height="22.553" viewBox="0 0 20.349 22.553"><defs><style>.a{fill:#307fe2;}</style></defs><path class="a" d="M44.989,9.053A1.493,1.493,0,0,0,43.735,8.4h-.587l-.233-2.142c-.075-.7-.028-.774.205-1,.09-.089.192-.177.3-.271a3.6,3.6,0,0,0,1.437-2.816.44.44,0,0,0-.549-.454c-.235.06-.451.118-.641.169-1.391.375-1.722.464-3.035-.346A7.974,7.974,0,0,0,34.743.128a8.735,8.735,0,0,0-3.559,1.866l-.211.161a2.674,2.674,0,0,0-2.112.271,3.136,3.136,0,0,0-1.447,2.234A20.291,20.291,0,0,0,27.189,8.4h-.544a1.493,1.493,0,0,0-1.254.654,2.3,2.3,0,0,0-.376,1.312,2.167,2.167,0,0,0,2.019,2.35h.288a8.722,8.722,0,0,0,1.788,3.538,9.926,9.926,0,0,0-1.94,2.436.44.44,0,0,0,.386.653h0l1.193,0a.593.593,0,0,1,.39.209l.656,1a1.452,1.452,0,0,0,1.122.606h0l1.195,0a.592.592,0,0,1,.388.208l.655,1a.44.44,0,0,0,.368.2h.017a.441.441,0,0,0,.369-.228c.287-.522.583-1.045.868-1.551q.323-.573.625-1.112a5.983,5.983,0,0,0,1.819-.4,8.534,8.534,0,0,0,1.663-.845.44.44,0,0,0-.48-.739,7.655,7.655,0,0,1-1.49.758,6.027,6.027,0,0,1-.994.283c1.005-1.878,1.637-3.38,1.355-4.373a1.349,1.349,0,0,0-.668-.841c-.926-.51-2.7-.219-4.638.759a12.656,12.656,0,0,0-2.2,1.414,7.053,7.053,0,0,1-1.709-4.149v-2.5a6.132,6.132,0,0,1,2.958-1.659,2.153,2.153,0,0,1,1.456.083c.142.042.3.09.482.137A49.044,49.044,0,0,0,41.4,9.124l.909.106v2.3a6.553,6.553,0,0,1-1.235,3.5.44.44,0,1,0,.732.491,8.363,8.363,0,0,0,1.248-2.808h.289a2.167,2.167,0,0,0,2.019-2.35,2.3,2.3,0,0,0-.376-1.312Zm-12.614,6c1.787-.9,3.272-1.073,3.815-.774a.478.478,0,0,1,.245.31c.278.98-1.092,3.409-2.418,5.757-.17.3-.344.61-.518.921l-.256-.39a1.457,1.457,0,0,0-1.126-.606l-1.2,0h0a.587.587,0,0,1-.386-.209l-.656-1a1.459,1.459,0,0,0-1.128-.606h-.4a10.909,10.909,0,0,1,4.026-3.41Zm-5.34-3.215c-.835,0-1.138-.878-1.138-1.469a1.442,1.442,0,0,1,.217-.807.611.611,0,0,1,.532-.279h.543v2.248q0,.152.009.306ZM41.5,8.249a48.358,48.358,0,0,1-8.317-1.515c-.165-.043-.312-.087-.454-.129a3.748,3.748,0,0,0-1.114-.211,3.05,3.05,0,0,0-.83.125,6.89,6.89,0,0,0-2.719,1.334,17.272,17.272,0,0,1,.214-3.065,2.247,2.247,0,0,1,1.026-1.606A1.8,1.8,0,0,1,30.9,3.057.44.44,0,0,0,31.317,3c.13-.1.262-.2.4-.3,1.718-1.313,4.07-3.111,8.451-.41a3.685,3.685,0,0,0,3.725.447,2.685,2.685,0,0,1-1.053,1.585c-.113.1-.229.2-.339.308a1.74,1.74,0,0,0-.463,1.727l.216,1.986Zm1.841,3.584h-.163c.006-.1.01-.205.01-.306V9.279h.542a.611.611,0,0,1,.532.279,1.442,1.442,0,0,1,.217.807c0,.59-.3,1.469-1.138,1.469Z" transform="translate(-25.016 0)"/><path class="a" d="M306.073,233.316a.44.44,0,0,0-.186-.595l-1.1-.576,1.1-.576a.44.44,0,0,0-.409-.78l-1.843.966a.44.44,0,0,0,0,.78l1.843.966a.44.44,0,0,0,.595-.186Z" transform="translate(-291.138 -220.575)"/><path class="a" d="M146.814,233.316a.44.44,0,0,0,.595.186l1.843-.966a.44.44,0,0,0,0-.78l-1.843-.966a.44.44,0,1,0-.409.78l1.1.576-1.1.576A.441.441,0,0,0,146.814,233.316Z" transform="translate(-141.401 -220.574)"/><path class="a" d="M178.952,347.741a.439.439,0,0,0,.233-.067,8.6,8.6,0,0,1,2.461-1.07.44.44,0,0,0-.209-.856,9.486,9.486,0,0,0-2.718,1.178.44.44,0,0,0,.234.814Z" transform="translate(-171.75 -330.507)"/><path class="a" d="M359.149,371.831h0a.44.44,0,1,0,.624,0A.44.44,0,0,0,359.147,371.832Z" transform="translate(-344.306 -355.329)"/></svg>