<svg xmlns="http://www.w3.org/2000/svg" xmlns:xlink="http://www.w3.org/1999/xlink" width="82.898" height="80.985" viewBox="0 0 82.898 80.985"><defs><style>.a{fill:#ccc;}.b{fill:#c4c4c4;}.c{fill:none;}.d{fill:#231f20;}.e{clip-path:url(#a);}.f{fill:#425ac2;}.g{fill:#ffc1c1;}.h{fill:#fff;}.i{clip-path:url(#b);}.j{fill:#a4b8ea;}.k{fill:#fe958e;}.l{fill:#ffb3b6;}.m{fill:#e98896;}.n{clip-path:url(#c);}.o{fill:#fc6262;}.p{fill:#fee2e3;}.q{fill:#0e24a5;}.r{clip-path:url(#d);}.s{fill:#03053f;}</style><clipPath id="a"><path class="a" d="M775.465,179.248h9.021c.482,0,.872.522.872,1.165v1.823c0,.643-.39,1.164-.872,1.164h-9.021c-.481,0-.872-.522-.872-1.164v-1.823C774.593,179.77,774.983,179.248,775.465,179.248Z" transform="translate(-774.593 -179.248)"/></clipPath><clipPath id="b"><path class="b" d="M665.523,165.143H648.756a9.592,9.592,0,0,0,3.122,3.388v18.2H662.4v-18.2A9.6,9.6,0,0,0,665.523,165.143Z" transform="translate(-648.756 -165.143)"/></clipPath><clipPath id="c"><path class="c" d="M700.65,122.766h13.536l1.69-17.979c.151-1.467-1.266-2.726-3.069-2.726H702.029c-1.8,0-3.22,1.259-3.069,2.726Z" transform="translate(-698.949 -102.061)"/></clipPath><clipPath id="d"><path class="c" d="M697.014,145.285H710.55l1.476,15.7L710.188,174.2h-5.408l2.205-11.848s-1.817-7.908-2.077-10.74h-1.792l-.961,10.95-4.62,11.551H691.97l4.83-12.5s.189-12.6.224-14.469A16.96,16.96,0,0,1,697.014,145.285Z" transform="translate(-691.97 -145.285)"/></clipPath></defs><g transform="translate(-637.396 -47.123)"><g transform="translate(704.035 102.707)"><rect class="d" width="0.21" height="19.207" transform="translate(0)"/></g><g transform="translate(708.447 70.54)"><rect class="d" width="0.21" height="48.504" transform="translate(0)"/></g><g transform="translate(706.241 86.185)"><rect class="d" width="0.21" height="35.728"/></g><g transform="translate(712.859 79.395)"><rect class="d" width="0.21" height="36.877"/></g><g transform="translate(710.653 69.81)"><rect class="d" width="0.21" height="49.799" transform="translate(0)"/></g><g transform="translate(698.49 108.095)"><circle class="a" cx="7.076" cy="7.076" r="7.076" transform="translate(0 10.006) rotate(-45)"/></g><g transform="translate(703.114 110.412)"><path class="a" d="M775.465,179.248h9.021c.482,0,.872.522.872,1.165v1.823c0,.643-.39,1.164-.872,1.164h-9.021c-.481,0-.872-.522-.872-1.164v-1.823C774.593,179.77,774.983,179.248,775.465,179.248Z" transform="translate(-774.593 -179.248)"/><g class="e"><g transform="translate(-1.837 2.542)"><rect class="f" width="13.212" height="0.21"/></g></g></g><g transform="translate(705.386 66.818)"><path class="g" d="M780.354,90.722a20.615,20.615,0,0,1-.818,2.663l.341-.809-.085.2a3.685,3.685,0,0,0-.342,2.61,3.389,3.389,0,0,0,4.167,2.366,3.237,3.237,0,0,0,2.024-1.557,24.288,24.288,0,0,0,1.245-3.67,3.388,3.388,0,1,0-6.533-1.8Z" transform="translate(-779.336 -88.239)"/></g><g transform="translate(695.452 96.302)"><g transform="translate(0)"><path class="g" d="M758.862,154.633a11.257,11.257,0,0,0,3.469,4.86c1.4,1.2,3.748.529,4.711-.871a3.461,3.461,0,0,0-.871-4.711c.742.636-.032-.083-.173-.248-.126-.146-.73-1.057-.238-.277a7.948,7.948,0,0,1-.8-1.712c-.59-1.753-3.028-2.3-4.528-1.569-1.817.881-2.157,2.779-1.569,4.528Z" transform="translate(-758.597 -149.791)"/></g></g><g transform="translate(702.501 84.952)"><g transform="translate(0)"><path class="g" d="M774.026,129.279a20.563,20.563,0,0,1-.471,3.58,13.38,13.38,0,0,0-.091,4.539,3.4,3.4,0,0,0,4.015,2.614A3.44,3.44,0,0,0,780.092,136q-.089-.641-.038-.2-.006-.364.019-.728a14.5,14.5,0,0,1,.246-1.8,21.59,21.59,0,0,0,.471-3.58,3.389,3.389,0,0,0-6.765-.411Z" transform="translate(-773.312 -126.096)"/></g></g><g transform="translate(711.855 76.277)"><g transform="translate(0)"><path class="g" d="M793.264,113.068q.345.685.666,1.382c.093.2.182.406.272.611-.407-.933,0,.016.076.209a3.651,3.651,0,0,0,1.557,2.025,3.411,3.411,0,0,0,2.611.342c1.641-.452,3.039-2.445,2.366-4.167q-.761-1.948-1.7-3.821a3.4,3.4,0,0,0-4.635-1.215,3.445,3.445,0,0,0-1.216,4.635Z" transform="translate(-792.84 -107.987)"/></g></g><g transform="translate(712.155 89.102)"><path class="g" d="M795.284,136.433c-.239.374-.5.735-.767,1.086l.53-.685q-.287.366-.588.72a3.571,3.571,0,0,0-.992,2.4,3.388,3.388,0,0,0,3.388,3.388,3.28,3.28,0,0,0,2.4-.992,23.236,23.236,0,0,0,1.885-2.492,3.388,3.388,0,0,0-5.851-3.42Z" transform="translate(-793.467 -134.76)"/></g><g transform="translate(707.911 100.068)"><path class="g" d="M788,164.585a11.28,11.28,0,0,0,2.364-.212l-.9.121a6.084,6.084,0,0,1,1.1-.059,3.388,3.388,0,0,0,0-6.776,12.877,12.877,0,0,0-2.358.229l.9-.121a5.479,5.479,0,0,1-1.1.042,3.4,3.4,0,0,0-3.388,3.388A3.445,3.445,0,0,0,788,164.585Z" transform="translate(-784.608 -157.653)"/></g><g transform="translate(698.115 77.202)"><path class="h" d="M764.909,110.294a.376.376,0,1,1-.377-.377A.377.377,0,0,1,764.909,110.294Z" transform="translate(-764.156 -109.918)"/></g><g transform="translate(708.128 72.873)"><path class="h" d="M785.811,101.257a.376.376,0,1,1-.376-.377A.376.376,0,0,1,785.811,101.257Z" transform="translate(-785.059 -100.881)"/></g><g transform="translate(712.983 79.649)"><path class="h" d="M795.948,115.4a.376.376,0,1,1-.376-.376A.376.376,0,0,1,795.948,115.4Z" transform="translate(-795.196 -115.026)"/></g><g transform="translate(708.066 89.803)"><path class="h" d="M785.682,136.6a.376.376,0,1,1-.376-.376A.377.377,0,0,1,785.682,136.6Z" transform="translate(-784.93 -136.225)"/></g><g transform="translate(716.822 93.087)"><path class="h" d="M803.963,143.455a.376.376,0,1,1-.376-.377A.376.376,0,0,1,803.963,143.455Z" transform="translate(-803.211 -143.079)"/></g><g transform="translate(714.498 103.273)"><path class="h" d="M799.112,164.722a.376.376,0,1,1-.377-.377A.377.377,0,0,1,799.112,164.722Z" transform="translate(-798.359 -164.345)"/></g><g transform="translate(699.121 101.368)"><path class="h" d="M767,160.677a.376.376,0,1,1-.438-.3A.377.377,0,0,1,767,160.677Z" transform="translate(-766.256 -160.369)"/></g><g transform="translate(650.364 81.225)"><g transform="translate(0)"><rect class="a" width="1.093" height="23.829"/></g></g><g transform="translate(645.445 83.393)"><rect class="a" width="1.093" height="21.029"/></g><g transform="translate(655.557 84.911)"><rect class="a" width="1.093" height="21.029"/></g><g transform="translate(642.837 103.655)"><path class="b" d="M665.523,165.143H648.756a9.592,9.592,0,0,0,3.122,3.388v18.2H662.4v-18.2A9.6,9.6,0,0,0,665.523,165.143Z" transform="translate(-648.756 -165.143)"/><g class="i" transform="translate(0)"><g transform="translate(1.415 3.448)"><rect class="g" width="20.36" height="0.21"/></g></g></g><g transform="translate(637.396 69.082)"><path class="g" d="M657.734,96.2c-1.913-4.1-7.983-4.68-10.658.456-2.278,4.373-7.687,2.836-9.2,6.924-2.733,7.379,6.927,10.208,11.023,6.377,2.824-2.642,6.42-1.07,9.565,1.458,5.1,4.1,13.027-4.646,8.017-8.745C662.591,99.488,660.091,101.253,657.734,96.2Z" transform="translate(-637.396 -92.966)"/></g><g transform="translate(643.548 97.55)"><path class="g" d="M650.547,153.5c-.893.748.229,2.742,2.468,2.331s3.383-1.462,2.148-2.605S652.238,152.079,650.547,153.5Z" transform="translate(-650.239 -152.396)"/></g><g transform="translate(649.883 92.364)"><path class="g" d="M663.7,142.909c1.526-2.8,3.866-.453,5.324.26,2.922,1.428,3.4-.444,4.935.325,1.558.779.909,2.792-2.4,3.376C668.681,147.378,662.144,145.766,663.7,142.909Z" transform="translate(-663.466 -141.57)"/></g><g transform="translate(650.958 49.871)"><rect class="j" width="60.533" height="45.32" rx="9.562" transform="translate(0)"/></g><g transform="translate(655.662 56.998)"><rect class="h" width="38.362" height="1.251"/></g><g transform="translate(655.662 66.939)"><rect class="h" width="38.362" height="1.251" transform="translate(0 0)"/></g><g transform="translate(655.662 76.879)"><rect class="h" width="38.362" height="1.251"/></g><g transform="translate(655.662 86.82)"><rect class="h" width="38.362" height="1.251"/></g><g transform="translate(697.209 54.572)"><rect class="h" width="5.982" height="5.982" rx="2.136" transform="translate(0)"/></g><g transform="translate(697.209 64.442)"><rect class="h" width="5.982" height="5.982" rx="2.136" transform="translate(0 0)"/></g><g transform="translate(697.209 74.313)"><rect class="h" width="5.982" height="5.982" rx="2.136" transform="translate(0 0)"/></g><g transform="translate(697.209 84.184)"><rect class="h" width="5.982" height="5.982" rx="2.136" transform="translate(0)"/></g><g transform="translate(696.963 75.918)"><rect class="k" width="3.919" height="1.453" transform="translate(0 2.771) rotate(-45)"/></g><g transform="translate(695.965 77.894)"><path class="l" d="M761.308,114.629c.641-.184,1.737-1.224,1.562-1.728s-.57-1.928-1.518-1.438l-1.686,1.181.823,2.22Z" transform="translate(-759.667 -111.362)"/></g><g transform="translate(663.537 94.143)"><path class="g" d="M697.014,145.285H710.55l1.476,15.7L710.188,174.2h-5.408l2.205-11.848s-1.817-7.908-2.077-10.74h-1.792l-.961,10.95-4.62,11.551H691.97l4.83-12.5s.189-12.6.224-14.469A16.96,16.96,0,0,1,697.014,145.285Z" transform="translate(-691.97 -145.285)"/></g><g transform="translate(666.88 73.439)"><path class="f" d="M700.65,122.766h13.536l1.69-17.979c.151-1.467-1.266-2.726-3.069-2.726H702.029c-1.8,0-3.22,1.259-3.069,2.726Z" transform="translate(-698.949 -102.061)"/></g><g transform="translate(673.031 70.117)"><path class="m" d="M714.172,100.353c-2.4,0-2.383-1.631-2.383-2.022V95.678c0-.6.9-.55,1.429-.55h1.717c.533,0,1.429.487,1.429,1.088v2.115A2.042,2.042,0,0,1,714.172,100.353Z" transform="translate(-711.789 -95.127)"/></g><g transform="translate(670.966 62.771)"><path class="l" d="M715.61,87.135c-.689,2.333-2.64,1.975-4.974,1.286a4.4,4.4,0,0,1,2.5-8.449C715.466,80.662,716.3,84.8,715.61,87.135Z" transform="translate(-707.479 -79.791)"/></g><g transform="translate(681.008 74.105)"><path class="f" d="M731.308,104.932l3.605,7.17,8.4-3.78c0-.232,1.989,1.769,1.68,2.31-.5.878-6.3,4.305-9.384,6.742-1.725,1.363-5.946-4.238-6.187-4.64-.385-.642-.907-4.62-.98-6.84a.976.976,0,0,1,.876-1l.8-1.439C730.562,103.407,731.153,104.514,731.308,104.932Z" transform="translate(-728.443 -103.451)"/></g><g transform="translate(659.021 74.029)"><path class="f" d="M691.527,103.293s-6.259,6.675-8.466,8.778c-1.218,1.16,0,2.03.7,2.9,1.93,2.413,8.179,6.729,8.179,6.729l-.348-3.654-3.77-4.409s5.3-4.1,5.48-4.39c.482-.8.08-4.345.08-4.345Z" transform="translate(-682.542 -103.293)"/></g><g transform="translate(677.798 123.023)"><path class="k" d="M724.37,205.576h-2.628v2.016h5.331c.352,0,.473-.79.165-.961Z" transform="translate(-721.742 -205.576)"/></g><g transform="translate(665.302 123.023)"><path class="k" d="M698.283,205.576h-2.628v2.016h5.331c.352,0,.473-.79.165-.961Z" transform="translate(-695.655 -205.576)"/></g><g transform="translate(666.88 73.439)"><g class="n" transform="translate(0 0)"><g transform="translate(15.826 5.176)"><rect class="o" width="0.21" height="9.816"/></g><g transform="translate(0.467 5.655)"><rect class="o" width="0.21" height="9.701" transform="matrix(0.998, -0.063, 0.063, 0.998, 0, 0.013)"/></g></g></g><g transform="translate(699.734 75.567)"><path class="p" d="M767.535,106.856l1.027,1.027.415-1.071-.276-.307Z" transform="translate(-767.535 -106.504)"/></g><g transform="translate(700.9 75.305)"><path class="q" d="M769.971,106.219l.276.308s.392-.371.241-.522C770.307,105.823,769.971,106.219,769.971,106.219Z" transform="translate(-769.971 -105.957)"/></g><g transform="translate(663.537 94.143)"><g class="r" transform="translate(0)"><g transform="translate(-2.485 0.863)"><rect class="s" width="24.432" height="0.538"/><g transform="translate(0 1.882)"><rect class="s" width="24.432" height="0.538"/></g><g transform="translate(0 3.765)"><rect class="s" width="24.432" height="0.538"/></g><g transform="translate(0 5.647)"><rect class="s" width="24.432" height="0.538"/></g><g transform="translate(0 7.529)"><rect class="s" width="24.432" height="0.538"/></g><g transform="translate(0 9.412)"><rect class="s" width="24.432" height="0.538"/></g><g transform="translate(0 11.294)"><rect class="s" width="24.432" height="0.538"/></g><g transform="translate(0 13.176)"><rect class="s" width="24.432" height="0.538"/></g><g transform="translate(0 15.058)"><rect class="s" width="24.432" height="0.538"/></g><g transform="translate(0 16.941)"><rect class="s" width="24.432" height="0.538"/></g><g transform="translate(0 18.823)"><rect class="s" width="24.432" height="0.538"/></g><g transform="translate(0 20.705)"><rect class="s" width="24.432" height="0.538"/></g><g transform="translate(0 22.588)"><rect class="s" width="24.432" height="0.538"/></g><g transform="translate(0 24.47)"><rect class="s" width="24.432" height="0.538"/></g><g transform="translate(0 26.352)"><rect class="s" width="24.432" height="0.538"/></g></g></g></g><g transform="translate(670.39 59.934)"><path class="k" d="M711.324,82.338c.734-.314-.462-1.477.455-2.135,1.365-.98,2.521-1.435,2.8-3.185.31-1.938-1.82-3.15-2.17-3.15s.735.56-.455,1.4c-1,.7-5.39,1.855-5.635,4.76-.248,2.944.63,3.85,1.75,4.41s-.35-1.19.56-2.31S710.834,82.548,711.324,82.338Z" transform="translate(-706.277 -73.868)"/></g><g transform="translate(697.846 56.487)"><g transform="translate(0 0)"><rect class="k" width="0.692" height="3.272" transform="translate(0 0.49) rotate(-45)"/></g><g transform="translate(1.846 0)"><rect class="k" width="3.272" height="0.692" transform="translate(0 2.314) rotate(-45.003)"/></g></g><g transform="translate(697.846 66.305)"><g transform="translate(0 0)"><rect class="k" width="0.692" height="3.272" transform="translate(0 0.49) rotate(-45)"/></g><g transform="translate(1.846 0)"><rect class="k" width="3.272" height="0.692" transform="translate(0 2.314) rotate(-45.003)"/></g></g><g transform="translate(658.042 47.123)"><path class="f" d="M682.458,52.724a.98.98,0,0,1-.981.98h0a.98.98,0,0,1-.98-.98V48.1a.98.98,0,0,1,.98-.98h0a.98.98,0,0,1,.981.98Z" transform="translate(-680.497 -47.123)"/></g><g transform="translate(703.685 47.123)"><path class="f" d="M777.744,52.724a.98.98,0,0,1-.98.98h0a.98.98,0,0,1-.98-.98V48.1a.98.98,0,0,1,.98-.98h0a.98.98,0,0,1,.98.98Z" transform="translate(-775.784 -47.123)"/></g></g></svg>