<svg xmlns="http://www.w3.org/2000/svg" width="19.493" height="20.193" viewBox="0 0 19.493 20.193"><defs><style>.a{fill:#307fe2;}</style></defs><g transform="translate(0 0)"><path class="a" d="M10.493,3.776a.3.3,0,1,1,.467.363A7.157,7.157,0,0,0,9.469,8.217l3.972-1.064a16.59,16.59,0,0,1-.025-5.024,7.072,7.072,0,0,0-1.548,1.042.3.3,0,0,1-.392-.443A7.709,7.709,0,0,1,14.127,1.2L13.841.4A.3.3,0,0,1,14.4.2l.3.834A7.7,7.7,0,0,1,23.248,4.75a.3.3,0,0,1,.04.169l-.1,1.542a.69.69,0,0,1-.51.62l-2.921.783A.692.692,0,0,1,19,7.582l-.38-.565-.046.679a.69.69,0,0,1-.51.62l-1.175.315L18.544,14.8l2.767-.008h0a.3.3,0,0,1,0,.592L15.52,15.4h0a1.091,1.091,0,0,1-.775-.325l-2.085-2.127a1.628,1.628,0,0,0-1.668-.4l-.634.211,3.953,3.981a.893.893,0,0,0,.63.262h11.45a1.524,1.524,0,0,0-.418-1.209,1.412,1.412,0,0,0-1-.415h0l-2.269.008h0a.3.3,0,0,1,0-.592l2.269-.008a2,2,0,0,1,1.428.587,2.43,2.43,0,0,1,.592,1.806.415.415,0,0,1-.414.414h-.711l.612,1.345a.884.884,0,0,1,.028.664h1.574a.3.3,0,1,1,0,.592H9.866a.3.3,0,1,1,0-.592h2.777a.884.884,0,0,1,.028-.664l.938-2.063-3.876-3.9A.418.418,0,0,1,9.9,12.29l.905-.3a2.224,2.224,0,0,1,2.278.55l2.085,2.127a.5.5,0,0,0,.352.148h0l2.414-.007L16.319,8.784,15.144,9.1a.692.692,0,0,1-.752-.282l-.38-.565-.046.679a.69.69,0,0,1-.51.62l-2.921.783a.692.692,0,0,1-.752-.282L8.922,8.769a.3.3,0,0,1-.05-.166,7.744,7.744,0,0,1,1.622-4.827ZM25.659,19.6a.3.3,0,0,0,.269-.419l-.723-1.59h-.65l.835,1.835A.3.3,0,0,0,25.659,19.6Zm-5.829,0h4.989L23.9,17.595H19.292Zm-.612,0-.538-2.008H15.234L14.32,19.6Zm-6.007-.419a.3.3,0,0,0,.147.392.29.29,0,0,0,.121.026.3.3,0,0,0,.27-.173l.853-1.875a1.5,1.5,0,0,1-.538-.247ZM19.492,7.252a.1.1,0,0,0,.107.04L22.52,6.51a.1.1,0,0,0,.073-.089l.077-1.129L18.861,6.313ZM18.57,5.778l3.969-1.063a7.112,7.112,0,0,0-6.63-3.289A13.24,13.24,0,0,1,18.57,5.778ZM14.883,8.487a.1.1,0,0,0,.107.04l2.921-.783a.1.1,0,0,0,.073-.089l.077-1.129L14.252,7.548ZM14.015,7,18,5.932a12.648,12.648,0,0,0-2.806-4.4,6.968,6.968,0,0,0-1.131.321A15.989,15.989,0,0,0,14.015,7ZM10.275,9.722a.1.1,0,0,0,.107.04L13.3,8.979a.1.1,0,0,0,.073-.089l.077-1.129L9.644,8.783Z" transform="translate(-8.871 -0.001)"/></g></svg>