<?xml version="1.0" standalone="no"?>
<!DOCTYPE svg PUBLIC "-//W3C//DTD SVG 20010904//EN"
 "http://www.w3.org/TR/2001/REC-SVG-20010904/DTD/svg10.dtd">
<svg version="1.0" xmlns="http://www.w3.org/2000/svg"
 width="74.000000pt" height="74.000000pt" viewBox="0 0 74.000000 74.000000"
 preserveAspectRatio="xMidYMid meet">

<g transform="translate(0.000000,74.000000) scale(0.100000,-0.100000)"
fill="#000000" stroke="none">
<path d="M359 736 c-2 -3 -25 -7 -51 -10 -107 -13 -217 -95 -268 -202 -24 -49
-39 -134 -23 -134 12 0 11 -53 -2 -62 -15 -11 12 -96 46 -150 122 -189 370
-229 542 -87 47 38 107 126 100 145 -3 8 0 14 7 14 21 0 5 34 -20 41 -23 7
-23 7 6 8 29 1 32 4 37 39 2 20 0 41 -4 47 -5 5 -9 -2 -9 -18 0 -24 -4 -27
-32 -26 l-33 1 28 10 c33 12 35 31 5 47 -21 10 -21 11 10 8 29 -3 32 -1 31 22
-1 45 -25 95 -50 108 -13 7 -18 13 -11 13 20 0 14 14 -30 64 -46 52 -92 81
-110 70 -7 -4 -8 -3 -4 4 8 14 -28 30 -83 38 -20 2 -45 7 -57 9 -12 3 -23 3
-25 1z m141 -52 c0 -2 -7 -4 -15 -4 -8 0 -15 4 -15 10 0 5 7 7 15 4 8 -4 15
-8 15 -10z m-30 -60 c11 -25 20 -52 20 -60 0 -9 5 -12 10 -9 6 4 10 -7 9 -27
-1 -44 -58 -160 -87 -174 -32 -16 -41 -28 -14 -21 12 3 22 4 22 3 0 -2 -5 -17
-11 -35 -17 -47 -69 -67 -69 -26 0 7 -11 27 -25 43 -32 38 -34 63 -2 35 l22
-21 33 23 33 22 -28 6 c-15 3 -45 22 -67 41 -30 28 -37 41 -32 58 3 13 6 36 6
52 0 24 2 26 15 16 14 -12 75 -5 75 8 -1 16 -17 31 -43 37 -31 8 -34 21 -11
53 12 18 25 22 70 22 l55 0 19 -46z m75 -44 c-4 -6 -1 -17 5 -25 10 -12 9 -15
-4 -15 -10 0 -16 9 -16 25 0 14 5 25 11 25 5 0 7 -5 4 -10z m86 -43 c-16 -16
-25 -1 -10 16 8 8 16 11 18 5 2 -5 -2 -15 -8 -21z m-374 -15 c2 -27 0 -33 -7
-22 -11 18 -13 60 -2 60 4 0 8 -17 9 -38z m-147 -27 c0 -8 -7 -15 -15 -15 -13
0 -14 3 -3 15 16 18 18 18 18 0z m474 -10 c-4 -8 -7 -15 -9 -15 -2 0 -5 7 -9
15 -3 9 0 15 9 15 9 0 12 -6 9 -15z m-514 1 c0 -11 -19 -15 -25 -6 -3 5 1 10
9 10 9 0 16 -2 16 -4z m-4 -54 c-22 -5 -30 3 -21 18 5 8 11 7 22 -2 15 -12 14
-13 -1 -16z m584 9 c0 -11 3 -27 7 -37 4 -11 3 -15 -4 -11 -13 8 -23 67 -11
67 4 0 8 -9 8 -19z m67 13 c-3 -3 -12 -4 -19 -1 -8 3 -5 6 6 6 11 1 17 -2 13
-5z m-577 -18 c0 -11 -19 -15 -25 -6 -3 5 1 10 9 10 9 0 16 -2 16 -4z m490
-90 c0 -3 -4 -8 -10 -11 -5 -3 -10 -1 -10 4 0 6 5 11 10 11 6 0 10 -2 10 -4z"/>
<path d="M410 571 c0 -23 15 -35 31 -25 8 4 7 9 -2 15 -11 7 -10 9 4 9 10 0
15 5 12 10 -11 18 -45 11 -45 -9z"/>
<path d="M346 495 c4 -8 15 -15 26 -15 17 0 18 3 8 15 -7 8 -19 15 -26 15 -8
0 -11 -6 -8 -15z"/>
<path d="M335 470 c-8 -14 13 -22 31 -12 14 8 14 10 -5 15 -11 3 -23 1 -26 -3z"/>
</g>
</svg>
